<svg width="1100" height="850" viewBox="0 0 1100 850" fill="none" xmlns="http://www.w3.org/2000/svg">
<path d="M1031.91 -60.5967L1080.95 -14.9331L1081.7 -14.2339L1082.62 -14.6801L1142.96 -43.8229L1114.68 16.925L1114.25 17.8551L1114.96 18.5959L1161.32 66.9738L1094.81 58.8544L1093.79 58.7301L1093.3 59.6341L1061.62 118.676L1048.79 52.9101L1048.59 51.9032L1047.58 51.7212L981.64 39.8332L1040.22 7.30694L1041.12 6.80894L1040.98 5.79246L1031.91 -60.5967Z" stroke="#C7B53F" stroke-width="3"/>
<path d="M1030.97 -75.1224L1085.08 -24.0345L1151.86 -56.8623L1119.99 10.3828L1171.85 63.7517L1098.05 54.2236L1063.31 120.035L1049.57 46.9014L976.247 34.2063L1041.55 -1.46486L1030.97 -75.1224Z" fill="#FFE432" fill-opacity="0.82"/>
<path d="M972.908 170.403L1021.95 216.067L1022.7 216.766L1023.62 216.32L1083.96 187.177L1055.68 247.925L1055.25 248.855L1055.96 249.596L1102.32 297.974L1035.81 289.854L1034.79 289.73L1034.3 290.634L1002.62 349.676L989.789 283.91L989.592 282.903L988.583 282.721L922.64 270.833L981.222 238.307L982.119 237.809L981.98 236.792L972.908 170.403Z" stroke="#C7B53F" stroke-width="3"/>
<path d="M971.97 155.878L1026.08 206.965L1092.86 174.138L1060.99 241.383L1112.85 294.752L1039.05 285.224L1004.31 351.035L990.57 277.901L917.247 265.206L982.554 229.535L971.97 155.878Z" fill="#FFE432" fill-opacity="0.82"/>
<path d="M64.9084 381.403L113.946 427.067L114.696 427.766L115.62 427.32L175.957 398.177L147.681 458.925L147.248 459.855L147.958 460.596L194.32 508.974L127.807 500.854L126.789 500.73L126.304 501.634L94.6204 560.676L81.7889 494.91L81.5925 493.903L80.5828 493.721L14.6398 481.833L73.2218 449.307L74.1187 448.809L73.9798 447.793L64.9084 381.403Z" stroke="#C7B53F" stroke-width="3"/>
<path d="M63.9699 366.878L118.076 417.965L184.858 385.138L152.99 452.383L204.848 505.752L131.046 496.224L96.3146 562.035L82.5704 488.901L9.24715 476.206L74.5543 440.535L63.9699 366.878Z" fill="#FFE432" fill-opacity="0.82"/>
<path d="M607.972 -32.928L635.32 28.243L635.739 29.1796L636.763 29.1289L703.688 25.8222L653.962 70.7346L653.2 71.4222L653.565 72.3811L677.391 135.008L619.31 101.594L618.421 101.083L617.622 101.726L565.423 143.738L579.253 78.1753L579.465 77.1715L578.606 76.6102L522.519 39.9482L589.148 32.8416L590.168 32.7328L590.436 31.7426L607.972 -32.928Z" stroke="#C7B53F" stroke-width="3"/>
<path d="M614.887 -49.9155L644.787 18.2271L719.083 14.0405L663.516 63.5348L690.456 132.901L626.213 95.3476L568.567 142.405L584.43 69.7012L521.862 29.4181L595.91 22.0381L614.887 -49.9155Z" fill="#FFE432" fill-opacity="0.82"/>
<path d="M421.528 42.8413L426.768 109.642L426.848 110.665L427.831 110.961L491.986 130.298L430.074 155.925L429.126 156.317L429.148 157.343L430.582 224.334L387.078 173.371L386.412 172.591L385.443 172.929L322.174 194.994L357.199 137.87L357.735 136.996L357.114 136.179L316.578 82.8253L381.729 98.4837L382.726 98.7234L383.312 97.8807L421.528 42.8413Z" stroke="#C7B53F" stroke-width="3"/>
<path d="M433.74 29.158L439.047 103.383L510.442 124.364L441.49 152.348L443.597 226.732L395.676 169.802L325.583 194.792L364.919 131.624L319.492 72.6849L391.723 90.5749L433.74 29.158Z" fill="#FFE432" fill-opacity="0.82"/>
<path d="M43.5298 722.806L53.1776 789.114L53.3253 790.129L54.325 790.359L119.619 805.411L59.5375 835.077L58.6176 835.531L58.7074 836.553L64.5694 903.302L17.7895 855.329L17.0732 854.594L16.129 854.995L-45.5417 881.197L-14.3722 821.882L-13.895 820.974L-14.5683 820.2L-58.5449 769.644L7.49888 780.959L8.51007 781.132L9.03817 780.253L43.5298 722.806Z" stroke="#C7B53F" stroke-width="3"/>
<path d="M54.8109 707.257L65.0154 780.968L137.642 797.181L70.6917 829.664L77.7148 903.746L26.1328 850.111L-42.153 879.683L-7.08235 814.051L-56.3084 758.246L16.9484 771.319L54.8109 707.257Z" fill="#FFE432" fill-opacity="0.82"/>
<path d="M523.87 570.734L575.536 642.961L576.133 643.796L577.127 643.542L663.173 621.581L610.446 693.038L609.837 693.863L610.385 694.73L657.861 769.778L573.608 741.714L572.635 741.39L571.98 742.179L515.276 810.522L515.931 721.721L515.939 720.695L514.986 720.316L432.465 687.506L517.123 660.688L518.101 660.379L518.167 659.355L523.87 570.734Z" stroke="#C7B53F" stroke-width="3"/>
<path d="M528.025 553.321L584.023 632.76L678.028 608.074L619.781 685.879L672.308 767.654L580.312 736.301L518.771 811.528L520.161 714.346L429.598 679.063L522.454 650.354L528.025 553.321Z" fill="#FFE432" fill-opacity="0.82"/>
<path d="M898.947 623.612L916.152 647.665L916.749 648.499L917.743 648.245L946.397 640.932L928.839 664.728L928.23 665.554L928.778 666.421L944.588 691.413L916.531 682.067L915.557 681.743L914.902 682.532L896.019 705.291L896.237 675.719L896.245 674.693L895.292 674.314L867.811 663.388L896.003 654.458L896.981 654.148L897.047 653.124L898.947 623.612Z" stroke="#C7B53F" stroke-width="3"/>
<path d="M899.674 614.554L920.011 643.404L954.151 634.439L932.997 662.695L952.074 692.394L918.663 681.008L896.313 708.328L896.818 673.034L863.928 660.22L897.651 649.794L899.674 614.554Z" fill="#FFE432" fill-opacity="0.82"/>
<path d="M1006.61 583.755L976.781 500.112L976.436 499.146L975.411 499.117L886.643 496.591L956.973 442.371L957.785 441.745L957.496 440.761L932.467 355.557L1005.77 405.69L1006.61 406.269L1007.46 405.69L1080.76 355.557L1055.73 440.761L1055.44 441.745L1056.25 442.371L1126.58 496.591L1037.82 499.117L1036.79 499.146L1036.45 500.112L1006.61 583.755Z" stroke="#C7B53F" stroke-width="3"/>
<path d="M997.835 599.356L965.818 507.589L868.648 505.497L946.031 446.69L917.993 353.629L997.835 409.052L1077.68 353.629L1049.64 446.69L1127.02 505.497L1029.85 507.589L997.835 599.356Z" fill="#FFE432" fill-opacity="0.82"/>
<path d="M1137.95 699.524L1136.18 788.311L1136.16 789.337L1137.11 789.728L1219.21 823.571L1134.22 849.323L1133.24 849.621L1133.16 850.644L1126.34 939.186L1075.59 866.315L1075 865.473L1074 865.715L987.69 886.593L1041.31 815.804L1041.93 814.986L1041.39 814.113L994.862 738.474L1078.76 767.595L1079.73 767.931L1080.39 767.15L1137.95 699.524Z" stroke="#C7B53F" stroke-width="3"/>
<path d="M1151.69 688.051L1149.08 785.208L1239.19 821.626L1145.98 849.166L1139.19 946.121L1084.2 865.985L989.889 889.489L1049.11 812.421L997.613 729.992L1089.21 762.499L1151.69 688.051Z" fill="#FFE432" fill-opacity="0.82"/>
</svg>
