<svg width="991" height="850" viewBox="0 0 991 850" fill="none" xmlns="http://www.w3.org/2000/svg">
<path d="M328.53 742.806L338.178 809.114L338.325 810.129L339.325 810.359L404.619 825.411L344.538 855.077L343.618 855.531L343.707 856.553L349.569 923.302L302.789 875.329L302.073 874.594L301.129 874.995L239.458 901.197L270.628 841.882L271.105 840.974L270.432 840.2L226.455 789.644L292.499 800.959L293.51 801.132L294.038 800.253L328.53 742.806Z" stroke="#C7B53F" stroke-width="3"/>
<path d="M339.811 727.257L350.015 800.968L422.642 817.181L355.692 849.664L362.715 923.746L311.133 870.111L242.847 899.683L277.918 834.051L228.692 778.246L301.948 791.319L339.811 727.257Z" fill="#FFE432" fill-opacity="0.82"/>
<path d="M772.926 723.953L823.906 796.274L824.502 797.118L825.503 796.863L909.671 775.438L858.408 846.487L857.819 847.304L858.352 848.159L905.284 923.326L822.655 894.852L821.663 894.511L821.002 895.325L765.892 963.158L766.023 874.543L766.024 873.535L765.092 873.153L684.03 839.915L766.81 813.635L767.794 813.322L767.854 812.291L772.926 723.953Z" stroke="#C7B53F" stroke-width="3"/>
<path d="M776.872 706.507L832.199 786.138L924.167 762.034L867.542 839.376L919.482 921.319L829.159 889.488L769.291 964.236L770.094 867.222L681.154 831.475L771.972 803.348L776.872 706.507Z" fill="#FFE432" fill-opacity="0.82"/>
<path d="M802.908 56.4033L851.946 102.067L852.696 102.766L853.62 102.32L913.957 73.1771L885.681 133.925L885.248 134.855L885.958 135.596L932.32 183.974L865.807 175.854L864.789 175.73L864.304 176.634L832.62 235.676L819.789 169.91L819.592 168.903L818.583 168.721L752.64 156.833L811.222 124.307L812.119 123.809L811.98 122.792L802.908 56.4033Z" stroke="#C7B53F" stroke-width="3"/>
<path d="M801.97 41.8776L856.076 92.9655L922.858 60.1377L890.99 127.383L942.848 180.752L869.046 171.224L834.315 237.035L820.57 163.901L747.247 151.206L812.554 115.535L801.97 41.8776Z" fill="#FFE432" fill-opacity="0.82"/>
<path d="M197.11 626.787L201.801 659.031L201.949 660.046L202.949 660.277L234.7 667.596L205.483 682.022L204.564 682.476L204.653 683.498L207.504 715.957L184.756 692.629L184.039 691.894L183.095 692.295L153.106 705.037L168.263 676.193L168.74 675.285L168.067 674.511L146.682 649.926L178.798 655.428L179.809 655.602L180.337 654.722L197.11 626.787Z" stroke="#C7B53F" stroke-width="3"/>
<path d="M201.578 616.638L206.85 654.718L244.371 663.095L209.783 679.876L213.411 718.148L186.763 690.439L151.485 705.717L169.603 671.81L144.172 642.979L182.018 649.733L201.578 616.638Z" fill="#FFE432" fill-opacity="0.82"/>
<path d="M96.8134 44.0648L145.851 89.7284L146.601 90.4276L147.525 89.9814L207.862 60.8386L179.586 121.586L179.153 122.517L179.863 123.257L226.225 171.635L159.713 163.516L158.694 163.392L158.209 164.296L126.525 223.338L113.694 157.572L113.497 156.565L112.488 156.383L46.5448 144.495L105.127 111.968L106.024 111.47L105.885 110.454L96.8134 44.0648Z" stroke="#C7B53F" stroke-width="3"/>
<path d="M95.875 24.8776L149.981 75.9655L216.763 43.1377L184.895 110.383L236.753 163.752L162.952 154.224L128.22 220.035L114.475 146.901L41.1522 134.206L106.459 98.5351L95.875 24.8776Z" fill="#FFE432" fill-opacity="0.82"/>
</svg>
