<svg width="757" height="78" viewBox="0 0 757 78" fill="none" xmlns="http://www.w3.org/2000/svg">
<g filter="url(#filter0_i_8_56)">
<path d="M59.4 7.2C58.7 9.35 57.35 11 55.35 12.15C53.35 13.3 50.85 13.875 47.85 13.875C45.45 13.875 42.95 13.675 40.35 13.275C37.75 12.825 35.15 12.275 32.55 11.625C31.9 13.325 31.425 15.2 31.125 17.25C30.875 19.25 30.55 21.425 30.15 23.775C29.6 27.075 28.875 30.425 27.975 33.825C27.075 37.225 25.875 40.325 24.375 43.125C22.875 45.925 20.925 48.05 18.525 49.5C17.475 50.1 16.475 50.725 15.525 51.375C14.625 52.025 13.6 52.575 12.45 53.025C11.35 53.475 9.925 53.7 8.175 53.7C5.925 53.7 4.225 53.275 3.075 52.425C1.975 51.625 1.225 50.475 0.825 48.975C0.475 47.475 0.3 45.7 0.3 43.65C0.3 43.3 0.375 42.65 0.525 41.7C0.725 40.75 0.925 39.8 1.125 38.85C1.375 37.9 1.6 37.25 1.8 36.9C2.15 36.1 2.75 35.1 3.6 33.9C4.5 32.7 5.525 31.5 6.675 30.3C7.825 29.1 9 28.1 10.2 27.3C11.4 26.5 12.5 26.1 13.5 26.1C13.9 26.1 14.35 26.425 14.85 27.075C15.4 27.675 15.875 28.375 16.275 29.175C16.675 29.975 16.875 30.65 16.875 31.2C16.875 31.4 16.775 31.875 16.575 32.625C16.425 33.325 16.1 34.125 15.6 35.025C15.1 35.875 14.35 36.625 13.35 37.275C13.15 37.325 12.95 37.35 12.75 37.35C12.6 37.35 12.425 37.35 12.225 37.35C10.825 37.35 10.125 37.075 10.125 36.525C10.125 36.075 10.575 35.675 11.475 35.325C12.375 34.925 13.05 34.7 13.5 34.65C14 34.6 14.325 34.4 14.475 34.05C14.625 33.65 14.7 32.8 14.7 31.5C14.7 31.25 14.625 30.875 14.475 30.375C14.375 29.875 14.225 29.4 14.025 28.95C13.875 28.5 13.7 28.275 13.5 28.275C12.65 28.275 11.8 28.65 10.95 29.4C10.15 30.15 9.4 31.075 8.7 32.175C8 33.275 7.375 34.375 6.825 35.475C6.275 36.525 5.875 37.4 5.625 38.1C5.525 38.4 5.35 38.9 5.1 39.6C4.85 40.25 4.625 40.925 4.425 41.625C4.225 42.275 4.125 42.775 4.125 43.125C4.125 43.775 4.1 44.45 4.05 45.15C4.05 45.8 4.05 46.4 4.05 46.95C4.05 48.3 4.275 49.4 4.725 50.25C5.225 51.1 6.375 51.525 8.175 51.525C9.725 51.525 11 51.25 12 50.7C13.05 50.1 13.95 49.4 14.7 48.6C15.5 47.75 16.275 46.925 17.025 46.125C20.075 43.025 22.45 39.625 24.15 35.925C25.9 32.175 27.15 28 27.9 23.4C28.3 20.95 28.725 18.75 29.175 16.8C29.675 14.8 30.325 12.95 31.125 11.25C28.575 10.55 26.125 9.85 23.775 9.15C21.475 8.4 19.375 7.75 17.475 7.2C16.425 6.85 15.525 6.525 14.775 6.225C14.075 5.875 12.975 5.7 11.475 5.7C10.375 5.7 9.275 5.85 8.175 6.15C7.125 6.4 6.6 7.05 6.6 8.1C6.6 8.4 6.575 8.75 6.525 9.15C6.525 9.55 6.525 9.95 6.525 10.35C6.525 11.3 6.65 12.275 6.9 13.275C7.15 14.225 7.675 15.05 8.475 15.75C9.275 16.4 10.525 16.775 12.225 16.875C12.925 16.925 13.475 16.775 13.875 16.425C14.325 16.075 14.7 15.725 15 15.375C15.2 14.875 15.575 14.625 16.125 14.625C16.625 14.625 16.875 14.975 16.875 15.675C16.875 15.825 16.85 15.975 16.8 16.125C16.8 16.275 16.775 16.45 16.725 16.65C16.225 17.25 15.625 17.825 14.925 18.375C14.275 18.875 13.375 19.125 12.225 19.125C11.375 19.125 10.4 18.975 9.3 18.675C8.25 18.325 7.225 17.725 6.225 16.875C5.225 15.975 4.425 14.75 3.825 13.2C3.275 11.6 3.075 9.575 3.225 7.125C3.325 6.125 3.7 5.175 4.35 4.275C5.05 3.375 5.9 2.65 6.9 2.1C7.95 1.5 8.975 1.2 9.975 1.2C10.775 1.2 11.775 1.325 12.975 1.575C14.175 1.825 15.4 2.125 16.65 2.475C17.95 2.825 19.125 3.175 20.175 3.525C21.275 3.875 22.125 4.15 22.725 4.35C24.325 4.85 25.95 5.475 27.6 6.225C29.25 6.925 30.95 7.625 32.7 8.325C32.8 8.175 32.9 8.025 33 7.875C33.15 7.725 33.275 7.55 33.375 7.35C33.925 6.6 34.475 6.225 35.025 6.225C35.275 6.225 35.4 6.35 35.4 6.6C35.4 7.05 35.05 7.65 34.35 8.4C34.3 8.45 34.25 8.525 34.2 8.625C34.15 8.675 34.075 8.75 33.975 8.85C36.275 9.75 38.625 10.525 41.025 11.175C43.425 11.825 45.925 12.15 48.525 12.15C53.325 12.15 56.325 10.475 57.525 7.125C57.575 5.825 57.85 5.175 58.35 5.175C58.6 5.175 58.825 5.375 59.025 5.775C59.275 6.175 59.4 6.65 59.4 7.2ZM57.8432 47.025C56.9432 48.325 55.9432 49.325 54.8432 50.025C53.7932 50.675 52.7932 51 51.8432 51C50.8932 51 50.1182 50.675 49.5182 50.025C48.8182 48.825 48.3182 47.6 48.0182 46.35C47.7682 45.05 47.5432 43.375 47.3432 41.325C47.1932 39.275 46.8682 36.525 46.3682 33.075C46.3682 33.075 46.2182 32.9 45.9182 32.55C45.6182 32.15 45.2682 31.95 44.8682 31.95C44.6182 31.95 44.3432 32.1 44.0432 32.4C43.7432 32.65 43.4432 33.15 43.1432 33.9C42.3932 35.8 41.7932 37.775 41.3432 39.825C40.9432 41.875 40.5682 43.775 40.2182 45.525C39.8682 47.275 39.4432 48.65 38.9432 49.65C38.5932 50.35 38.1432 50.7 37.5932 50.7C37.1432 50.7 36.7182 50.475 36.3182 50.025C36.3182 50.025 36.3432 49.575 36.3932 48.675C36.4932 47.725 36.6182 46.575 36.7682 45.225C36.9182 43.825 37.0432 42.475 37.1432 41.175C37.0432 41.225 36.7682 41.525 36.3182 42.075C35.8682 42.575 35.3682 43.075 34.8182 43.575C34.2682 44.025 33.7682 44.225 33.3182 44.175C33.0182 43.825 33.1682 43.3 33.7682 42.6C34.3682 41.85 35.0432 41.025 35.7932 40.125C36.5932 39.175 37.1432 38.25 37.4432 37.35C38.1432 35.25 38.6182 33 38.8682 30.6C39.1682 28.2 39.4932 25.925 39.8432 23.775C40.5932 19.125 41.3432 15.05 42.0932 11.55C42.8932 8.05 43.8432 5.35 44.9432 3.45C46.0432 1.5 47.4432 0.524997 49.1432 0.524997C49.8432 0.524997 50.3932 0.799997 50.7932 1.35C51.1932 1.85 51.3932 2.8 51.3932 4.2C51.3932 4.4 51.3932 4.65 51.3932 4.95C51.3932 5.25 51.3682 5.55 51.3182 5.85C51.0182 9.2 50.3932 12.9 49.4432 16.95C48.4932 20.95 46.7932 25.3 44.3432 30C44.8932 29.85 45.4432 29.775 45.9932 29.775C46.9932 29.775 47.9182 29.95 48.7682 30.3C49.6182 30.6 50.1932 30.95 50.4932 31.35C50.7932 31.75 50.9932 32.2 51.0932 32.7C51.1932 33.2 51.2432 33.775 51.2432 34.425C51.2432 35.675 51.0932 37.225 50.7932 39.075C50.5432 40.925 50.4182 43.1 50.4182 45.6C50.4182 46.45 50.6932 47.1 51.2432 47.55C51.8432 47.95 52.5432 48.15 53.3432 48.15C54.0432 48.15 54.7182 48 55.3682 47.7C56.0182 47.4 56.5432 46.975 56.9432 46.425C56.9932 46.325 57.1432 46.275 57.3932 46.275C57.5432 46.275 57.6682 46.35 57.7682 46.5C57.9182 46.6 57.9432 46.775 57.8432 47.025ZM49.5182 3.6C49.5182 3.15 49.4182 2.925 49.2182 2.925C48.9182 2.925 48.4432 3.35 47.7932 4.2C47.1932 5 46.5932 6.05 45.9932 7.35C45.3932 8.65 44.8932 10.025 44.4932 11.475C43.8932 13.775 43.3932 15.85 42.9932 17.7C42.5932 19.5 42.2682 21.65 42.0182 24.15C41.9682 24.9 41.9182 25.75 41.8682 26.7C41.8182 27.6 41.7682 28.375 41.7182 29.025C41.7182 29.675 41.7182 30 41.7182 30C42.4682 28.8 43.2682 27.575 44.1182 26.325C44.9682 25.075 45.6682 23.6 46.2182 21.9C46.9682 19.7 47.5682 17.425 48.0182 15.075C48.5182 12.675 48.8932 10.45 49.1432 8.4C49.3932 6.35 49.5182 4.75 49.5182 3.6ZM74.0004 20.7C73.6504 20.7 73.3004 20.65 72.9504 20.55C72.6504 20.4 72.3504 20.225 72.0504 20.025C71.4004 19.725 71.0754 19.075 71.0754 18.075C71.0754 17.625 71.1754 17.125 71.3754 16.575C71.6254 16.025 72.0004 15.5 72.5004 15C72.8504 14.65 73.2754 14.475 73.7754 14.475C74.2254 14.475 74.6504 14.65 75.0504 15C75.2504 15.2 75.3754 15.525 75.4254 15.975C75.5254 16.375 75.5754 16.825 75.5754 17.325C75.5754 17.925 75.5254 18.525 75.4254 19.125C75.3254 19.675 75.1504 20.075 74.9004 20.325C74.5504 20.575 74.2504 20.7 74.0004 20.7ZM66.3504 50.175C64.5004 50.175 63.2254 49.75 62.5254 48.9C61.8254 48.05 61.4754 47.025 61.4754 45.825C61.4754 45.275 61.5254 44.725 61.6254 44.175C61.7254 43.625 61.8504 43.075 62.0004 42.525C61.5004 43.425 60.7254 44.475 59.6754 45.675C58.6254 46.825 57.6504 47.75 56.7504 48.45C56.5504 48.6 56.3504 48.675 56.1504 48.675C55.8504 48.675 55.7004 48.5 55.7004 48.15C55.7004 47.75 55.8504 47.4 56.1504 47.1C58.2504 44.9 59.8504 43.125 60.9504 41.775C62.0504 40.375 62.9004 39.2 63.5004 38.25C64.1004 37.3 64.6754 36.425 65.2254 35.625C65.6754 34.175 66.0754 32.775 66.4254 31.425C66.8254 30.025 67.4254 28.6 68.2254 27.15C68.4754 26.7 68.9754 26.475 69.7254 26.475C70.2254 26.475 70.6754 26.6 71.0754 26.85C71.4754 27.1 71.6754 27.525 71.6754 28.125C71.6754 28.425 71.6004 28.775 71.4504 29.175C70.9004 30.725 70.3004 32.05 69.6504 33.15C69.0504 34.2 68.2504 35.55 67.2504 37.2C66.2004 38.9 65.3504 40.55 64.7004 42.15C64.1004 43.75 63.8004 45.1 63.8004 46.2C63.8004 46.9 63.9504 47.475 64.2504 47.925C64.6004 48.375 65.1004 48.6 65.7504 48.6C67.1504 48.65 68.2254 48.425 68.9754 47.925C69.7254 47.375 70.3504 46.85 70.8504 46.35C71.5004 45.65 72.0504 45 72.5004 44.4C73.0004 43.8 73.4504 43.275 73.8504 42.825C74.1504 42.525 74.3004 42.575 74.3004 42.975C74.3004 43.225 74.2254 43.55 74.0754 43.95C73.9754 44.35 73.8504 44.65 73.7004 44.85C73.2004 45.55 72.6004 46.325 71.9004 47.175C71.2504 48.025 70.4754 48.75 69.5754 49.35C68.6754 49.9 67.6004 50.175 66.3504 50.175ZM89.1182 45.9C88.4682 46.55 87.8932 47.2 87.3932 47.85C86.8932 48.5 85.7932 49.25 84.0932 50.1C83.8932 50.4 83.4432 50.85 82.7432 51.45C82.0932 52.05 80.7932 52.4 78.8432 52.5C77.5432 52.55 76.4932 52.225 75.6932 51.525C74.9432 50.875 74.3682 50.075 73.9682 49.125C73.5682 48.175 73.2182 47.3 72.9182 46.5C72.8682 46.55 72.6432 46.75 72.2432 47.1C71.8432 47.45 71.4432 47.8 71.0432 48.15C70.5932 48.5 70.3182 48.725 70.2182 48.825C70.1682 48.875 70.0682 48.9 69.9182 48.9C69.6682 48.9 69.4682 48.775 69.3182 48.525C69.1182 48.225 69.1182 47.975 69.3182 47.775C70.2682 46.825 70.9932 46.1 71.4932 45.6C71.9932 45.05 72.4432 44.525 72.8432 44.025C73.2432 43.525 73.7182 42.9 74.2682 42.15C75.1182 40.85 76.0182 39.7 76.9682 38.7C77.9682 37.65 78.5932 36.875 78.8432 36.375C78.8932 36.325 78.9182 36.225 78.9182 36.075C78.9182 35.925 78.8432 35.8 78.6932 35.7C78.5932 35.6 78.5182 35.475 78.4682 35.325C78.2682 34.525 78.1682 33.775 78.1682 33.075C78.1682 31.975 78.5932 30.675 79.4432 29.175C79.7932 28.925 80.2682 28.725 80.8682 28.575C81.4682 28.375 81.9432 28.35 82.2932 28.5C82.6932 28.7 82.9432 28.925 83.0432 29.175C83.1932 29.425 83.3182 29.75 83.4182 30.15C83.4182 30.2 83.4182 30.25 83.4182 30.3C83.4682 30.35 83.4932 30.425 83.4932 30.525C83.4932 30.825 83.4432 31.15 83.3432 31.5C83.2432 31.85 83.1182 32.225 82.9682 32.625C82.9682 32.825 82.7182 33.2 82.2182 33.75C81.7682 34.3 81.6182 34.65 81.7682 34.8C82.0682 35.45 82.5682 36.3 83.2682 37.35C84.1182 38.55 84.6932 39.65 84.9932 40.65C85.3432 41.65 85.5182 42.55 85.5182 43.35C85.5182 44.3 85.3682 45.125 85.0682 45.825C84.8182 46.525 84.6182 47.125 84.4682 47.625C84.9182 47.675 85.4432 47.45 86.0432 46.95C86.6432 46.4 87.2182 45.8 87.7682 45.15C88.3682 44.45 88.8182 43.95 89.1182 43.65C89.4182 43.35 89.6432 43.2 89.7932 43.2C90.0432 43.2 90.0432 43.575 89.7932 44.325C89.5932 45.075 89.3682 45.6 89.1182 45.9ZM81.8432 31.5C81.8432 31.3 81.8182 31.075 81.7682 30.825C81.7182 30.575 81.5682 30.425 81.3182 30.375H81.2432C80.9932 30.375 80.7932 30.5 80.6432 30.75C80.4932 30.95 80.3682 31.15 80.2682 31.35C80.1182 31.75 79.9682 32.1 79.8182 32.4C79.7182 32.65 79.7682 32.9 79.9682 33.15C80.1682 33.25 80.5182 33.05 81.0182 32.55C81.5682 32 81.8432 31.65 81.8432 31.5ZM81.9932 43.5C81.9932 42.75 81.8432 41.95 81.5432 41.1C81.2932 40.2 80.9932 39.4 80.6432 38.7C80.3432 38 80.1182 37.55 79.9682 37.35C79.9682 37.35 79.6682 37.725 79.0682 38.475C78.4682 39.175 77.8182 39.95 77.1182 40.8C76.6682 41.3 76.2182 41.95 75.7682 42.75C75.3182 43.55 75.0432 44.25 74.9432 44.85C74.9432 44.85 75.1682 45.15 75.6182 45.75C76.0682 46.3 76.6182 46.825 77.2682 47.325C77.9682 47.825 78.6432 48 79.2932 47.85C80.2932 47.6 80.9932 47.025 81.3932 46.125C81.7932 45.175 81.9932 44.3 81.9932 43.5ZM79.4432 49.35H78.7682C78.5682 49.35 78.3432 49.35 78.0932 49.35C77.8432 49.3 77.5932 49.25 77.3432 49.2C77.0932 49.1 76.7182 48.9 76.2182 48.6C75.7182 48.3 75.4682 48.15 75.4682 48.15C75.4682 48.15 75.4432 48.2 75.3932 48.3C75.3932 48.4 75.3932 48.525 75.3932 48.675C75.3932 48.875 75.4182 49.1 75.4682 49.35C75.5682 49.6 75.7432 49.85 75.9932 50.1C76.3932 50.4 76.7432 50.65 77.0432 50.85C77.3432 51 77.7432 51 78.2432 50.85C78.5932 50.75 78.8682 50.475 79.0682 50.025C79.3182 49.575 79.4432 49.35 79.4432 49.35ZM145.825 46.65C145.225 47.25 144.3 48.1 143.05 49.2C141.85 50.25 140.575 51.25 139.225 52.2C137.925 53.15 136.825 53.75 135.925 54C134.875 54.3 133.925 54.625 133.075 54.975C132.225 55.325 131.3 55.625 130.3 55.875C129.3 56.175 128.05 56.325 126.55 56.325C124.45 56.325 122.2 55.95 119.8 55.2C117.4 54.5 115.15 53.625 113.05 52.575C110.95 51.575 109.25 50.6 107.95 49.65C105.35 47.7 103.35 45.075 101.95 41.775C100.6 38.425 99.9252 34.5 99.9252 30C99.9252 28.75 100.05 27.4 100.3 25.95C100.55 24.45 100.85 23.05 101.2 21.75C101.55 20.4 101.9 19.325 102.25 18.525C103.3 16.125 104.575 13.775 106.075 11.475C107.625 9.175 109.625 7.25 112.075 5.7C113.375 4.85 115.025 3.975 117.025 3.075C119.025 2.125 121.65 1.65 124.9 1.65C125.35 1.65 125.825 1.675 126.325 1.725C126.825 1.725 127.325 1.75 127.825 1.8C130.575 2.1 133 2.95 135.1 4.35C137.25 5.75 138.925 7.225 140.125 8.775C140.675 9.475 141.15 10.4 141.55 11.55C141.95 12.7 142.15 13.925 142.15 15.225C142.15 15.825 142.1 16.425 142 17.025C141.95 17.625 141.8 18.225 141.55 18.825C140.95 20.675 140.125 22.4 139.075 24C138.075 25.6 136.825 26.9 135.325 27.9C133.825 28.85 132.025 29.325 129.925 29.325C128.075 29.325 126.65 29.2 125.65 28.95C124.65 28.7 123.825 28.3 123.175 27.75C122.525 27.15 121.775 26.35 120.925 25.35C120.225 24.5 119.75 23.55 119.5 22.5C119.25 21.4 119.125 20.375 119.125 19.425C119.125 18.475 119.125 17.8 119.125 17.4C119.125 16.2 119.625 15 120.625 13.8C121.675 12.55 122.9 11.5 124.3 10.65C125.75 9.8 127.025 9.375 128.125 9.375C129.125 9.375 129.925 9.775 130.525 10.575C131.125 11.325 131.55 12.175 131.8 13.125C132.1 14.075 132.25 14.825 132.25 15.375C132.25 16.125 132.15 16.975 131.95 17.925C131.75 18.875 131.075 19.775 129.925 20.625C129.725 20.825 129.525 20.925 129.325 20.925C128.975 20.925 128.8 20.675 128.8 20.175C128.8 19.925 128.875 19.625 129.025 19.275C129.175 18.925 129.425 18.625 129.775 18.375C130.175 18.075 130.425 17.725 130.525 17.325C130.625 16.925 130.675 16.55 130.675 16.2C130.675 15.9 130.65 15.625 130.6 15.375C130.6 15.075 130.6 14.825 130.6 14.625C130.6 14.225 130.375 13.675 129.925 12.975C129.475 12.225 128.875 11.85 128.125 11.85C127.375 11.85 126.475 12.15 125.425 12.75C124.425 13.3 123.55 14 122.8 14.85C122.05 15.7 121.675 16.55 121.675 17.4C121.675 17.9 121.975 18.675 122.575 19.725C123.225 20.775 123.95 21.8 124.75 22.8C125.4 23.55 125.85 24.15 126.1 24.6C126.4 25.05 126.8 25.375 127.3 25.575C127.85 25.725 128.85 25.8 130.3 25.8C132.8 25.8 134.7 25.05 136 23.55C137.3 22 138.35 20.15 139.15 18C139.45 17 139.6 16.05 139.6 15.15C139.6 14.15 139.45 13.225 139.15 12.375C138.9 11.525 138.575 10.85 138.175 10.35C137.175 9 136 8 134.65 7.35C133.3 6.65 131.45 6.2 129.1 6C128.65 5.95 128.2 5.925 127.75 5.925C127.35 5.875 126.95 5.85 126.55 5.85C123.55 5.85 121.15 6.3 119.35 7.2C117.6 8.1 116.075 8.925 114.775 9.675C112.525 11.025 110.725 12.75 109.375 14.85C108.025 16.95 106.85 19.1 105.85 21.3C105.55 22 105.225 22.975 104.875 24.225C104.575 25.475 104.325 26.775 104.125 28.125C103.925 29.475 103.825 30.7 103.825 31.8C103.825 35.8 104.175 39 104.875 41.4C105.575 43.8 107.1 45.875 109.45 47.625C110.7 48.525 112.3 49.45 114.25 50.4C116.2 51.35 118.25 52.15 120.4 52.8C122.6 53.5 124.65 53.85 126.55 53.85C128.6 53.85 130.2 53.575 131.35 53.025C132.5 52.525 133.775 52.05 135.175 51.6C136.025 51.35 137.1 50.85 138.4 50.1C139.7 49.35 140.95 48.55 142.15 47.7C143.4 46.85 144.3 46.175 144.85 45.675C145.2 45.325 145.55 45.15 145.9 45.15C146.2 45.15 146.35 45.3 146.35 45.6C146.35 45.95 146.175 46.3 145.825 46.65ZM164.713 41.85C164.063 42.95 163.238 44.15 162.238 45.45C161.238 46.7 160.188 47.775 159.088 48.675C158.038 49.575 157.038 50.025 156.088 50.025C154.538 50.025 153.313 49.95 152.413 49.8C151.563 49.6 150.863 49.325 150.313 48.975C149.363 48.325 148.588 47.475 147.988 46.425C147.388 45.375 147.038 44.3 146.938 43.2C146.888 42.9 146.863 42.6 146.863 42.3C146.863 42 146.863 41.725 146.863 41.475C146.863 38.525 147.438 35.925 148.588 33.675C149.738 31.425 151.363 30.075 153.463 29.625C154.113 29.525 154.613 29.8 154.963 30.45C155.313 31.05 155.488 31.875 155.488 32.925C155.488 34.525 155.063 36.25 154.213 38.1C153.863 38.85 153.488 39.575 153.088 40.275C152.738 40.925 152.438 41.45 152.188 41.85C151.538 42.8 151.038 43.45 150.688 43.8C150.388 44.1 150.238 44.4 150.238 44.7C150.238 45.5 150.738 46.275 151.738 47.025C152.738 47.775 154.288 48.15 156.388 48.15C157.188 48.15 158.013 47.8 158.863 47.1C159.713 46.4 160.538 45.525 161.338 44.475C162.188 43.425 162.938 42.375 163.588 41.325C163.888 40.825 164.163 40.575 164.413 40.575C164.713 40.575 164.863 40.8 164.863 41.25C164.863 41.45 164.813 41.65 164.713 41.85ZM153.463 32.4C153.263 32.1 152.838 32.175 152.188 32.625C151.588 33.025 151.038 33.975 150.538 35.475C150.188 36.575 150.013 37.85 150.013 39.3C150.013 39.7 150.013 40.1 150.013 40.5C150.063 40.9 150.113 41.3 150.163 41.7C151.013 40.25 151.613 39.175 151.963 38.475C152.363 37.725 152.663 36.95 152.863 36.15C152.963 35.75 153.113 35.25 153.313 34.65C153.563 34.05 153.688 33.525 153.688 33.075C153.688 32.775 153.613 32.55 153.463 32.4ZM177.811 46.95C178.011 46.75 178.286 46.65 178.636 46.65C178.986 46.65 179.161 46.8 179.161 47.1C179.161 47.45 178.761 48 177.961 48.75C177.161 49.5 176.286 50.1 175.336 50.55C174.386 51 173.486 51.325 172.636 51.525C172.236 51.575 171.686 51.425 170.986 51.075C170.336 50.775 169.936 50.45 169.786 50.1C169.586 49.65 169.436 49.15 169.336 48.6C169.236 48 169.186 47.375 169.186 46.725C169.186 45.175 169.361 43.575 169.711 41.925C170.061 40.275 170.386 38.85 170.686 37.65C170.086 37.85 169.411 37.95 168.661 37.95C167.961 37.95 167.336 38 166.786 38.1C166.436 38.6 166.136 39.175 165.886 39.825C165.636 40.425 165.286 41.1 164.836 41.85C164.036 43.15 163.136 44.45 162.136 45.75C161.186 47 160.211 48.025 159.211 48.825C158.211 49.625 157.236 50.025 156.286 50.025C155.636 50.025 155.311 49.85 155.311 49.5C155.311 49.15 155.736 48.825 156.586 48.525C157.786 48.075 159.011 47.125 160.261 45.675C161.511 44.225 162.636 42.725 163.636 41.175C164.136 40.425 164.461 39.75 164.611 39.15C164.761 38.5 164.836 38 164.836 37.65C164.836 37.65 164.611 37.4 164.161 36.9C163.761 36.35 163.561 35.825 163.561 35.325C163.561 34.225 163.911 33.225 164.611 32.325C165.361 31.425 166.136 31.1 166.936 31.35C167.486 31.5 167.836 31.75 167.986 32.1C168.186 32.45 168.286 32.825 168.286 33.225C168.286 33.675 168.211 34.15 168.061 34.65C167.911 35.1 167.761 35.5 167.611 35.85C167.761 36.05 168.086 36.15 168.586 36.15C169.336 36.15 170.161 36 171.061 35.7C171.711 34.75 172.336 34 172.936 33.45C173.536 32.9 174.086 32.675 174.586 32.775C174.936 32.825 175.261 32.95 175.561 33.15C175.861 33.35 176.011 33.725 176.011 34.275C176.011 34.725 175.786 35.4 175.336 36.3C174.586 37.65 173.886 39.125 173.236 40.725C172.586 42.275 172.086 43.7 171.736 45C171.386 46.25 171.236 47.125 171.286 47.625C171.386 48.275 171.561 48.7 171.811 48.9C172.111 49.1 172.436 49.2 172.786 49.2C173.036 49.2 173.286 49.175 173.536 49.125C173.836 49.025 174.111 48.95 174.361 48.9C175.111 48.65 175.736 48.375 176.236 48.075C176.736 47.775 177.261 47.4 177.811 46.95ZM166.636 34.275C166.636 33.825 166.486 33.5 166.186 33.3C166.136 33.25 166.061 33.225 165.961 33.225C165.711 33.225 165.486 33.4 165.286 33.75C165.086 34.05 164.986 34.35 164.986 34.65C164.986 34.9 165.011 35.2 165.061 35.55C165.161 35.85 165.336 35.925 165.586 35.775C165.836 35.625 166.061 35.425 166.261 35.175C166.511 34.925 166.636 34.625 166.636 34.275ZM199.934 21.375C199.934 21.375 199.934 21.55 199.934 21.9C199.984 22.25 199.884 22.675 199.634 23.175C199.384 23.675 198.834 24.175 197.984 24.675C197.684 24.875 197.134 25.025 196.334 25.125C195.534 25.225 194.634 25.3 193.634 25.35C193.084 26.8 192.484 28.275 191.834 29.775C191.184 31.225 190.509 32.6 189.809 33.9C188.759 35.9 187.859 37.375 187.109 38.325C186.409 39.275 185.859 40 185.459 40.5C185.059 40.95 184.784 41.5 184.634 42.15C184.584 42.45 184.534 42.725 184.484 42.975C184.484 43.225 184.484 43.475 184.484 43.725C184.484 45.575 185.009 46.925 186.059 47.775C187.159 48.625 188.209 49.05 189.209 49.05C190.359 49.05 191.509 48.65 192.659 47.85C193.809 47 194.759 46.225 195.509 45.525C196.109 45.025 196.559 44.775 196.859 44.775C197.059 44.775 197.159 44.875 197.159 45.075C197.159 45.425 196.884 45.975 196.334 46.725C196.034 47.125 195.534 47.675 194.834 48.375C194.134 49.075 193.259 49.725 192.209 50.325C191.159 50.875 189.984 51.15 188.684 51.15C186.084 51.15 184.334 50.55 183.434 49.35C182.584 48.15 182.159 46.15 182.159 43.35C182.159 41.15 182.384 38.45 182.834 35.25C183.284 32 183.984 28.575 184.934 24.975C184.684 24.975 184.434 24.975 184.184 24.975C183.934 24.925 183.709 24.9 183.509 24.9C182.859 24.9 182.359 25 182.009 25.2C181.709 25.35 181.459 25.425 181.259 25.425C180.759 25.425 180.509 25.05 180.509 24.3C180.509 23.45 180.734 22.8 181.184 22.35C181.534 22 182.134 21.825 182.984 21.825C183.634 21.825 184.509 21.95 185.609 22.2C185.709 21.9 185.809 21.625 185.909 21.375C186.009 21.125 186.084 20.875 186.134 20.625C186.234 20.125 186.334 19.725 186.434 19.425C186.534 19.125 186.659 18.75 186.809 18.3C187.659 15.75 188.584 13.3 189.584 10.95C190.584 8.6 192.034 6.5 193.934 4.65C194.284 4.1 194.759 3.825 195.359 3.825C195.809 3.825 196.209 4.025 196.559 4.425C196.909 4.775 197.059 5.2 197.009 5.7C197.009 5.7 196.984 6.325 196.934 7.575C196.884 8.825 196.784 10.35 196.634 12.15C196.484 13.9 196.259 15.575 195.959 17.175C195.809 18.125 195.584 19.15 195.284 20.25C195.034 21.3 194.709 22.375 194.309 23.475C194.609 23.525 194.884 23.575 195.134 23.625C195.434 23.625 195.709 23.625 195.959 23.625C196.709 23.625 197.284 23.525 197.684 23.325C198.134 23.075 198.384 22.825 198.434 22.575C198.534 22.325 198.584 22.2 198.584 22.2C198.584 21.2 198.834 20.7 199.334 20.7C199.584 20.7 199.784 20.925 199.934 21.375ZM194.609 8.85C194.309 8.8 193.834 9.375 193.184 10.575C192.534 11.775 191.834 13.35 191.084 15.3C190.334 17.25 189.609 19.325 188.909 21.525C188.859 21.725 188.809 21.925 188.759 22.125C188.709 22.275 188.659 22.45 188.609 22.65C188.959 22.75 189.309 22.825 189.659 22.875C190.009 22.925 190.384 23 190.784 23.1C190.984 23.15 191.209 23.175 191.459 23.175C191.709 23.175 191.934 23.225 192.134 23.325C192.334 22.775 192.509 22.3 192.659 21.9C192.809 21.45 192.959 21.05 193.109 20.7C193.659 18.85 194.109 16.95 194.459 15C194.809 13.05 194.984 11.525 194.984 10.425C194.984 9.525 194.859 9 194.609 8.85ZM191.309 25.35H189.959C189.609 25.35 189.259 25.35 188.909 25.35C188.609 25.35 188.309 25.325 188.009 25.275C187.559 27.175 187.109 29.225 186.659 31.425C186.259 33.575 185.934 35.5 185.684 37.2C186.284 36.5 186.909 35.5 187.559 34.2C188.209 32.9 188.859 31.475 189.509 29.925C190.159 28.325 190.759 26.8 191.309 25.35ZM211.622 20.7C211.272 20.7 210.922 20.65 210.572 20.55C210.272 20.4 209.972 20.225 209.672 20.025C209.022 19.725 208.697 19.075 208.697 18.075C208.697 17.625 208.797 17.125 208.997 16.575C209.247 16.025 209.622 15.5 210.122 15C210.472 14.65 210.897 14.475 211.397 14.475C211.847 14.475 212.272 14.65 212.672 15C212.872 15.2 212.997 15.525 213.047 15.975C213.147 16.375 213.197 16.825 213.197 17.325C213.197 17.925 213.147 18.525 213.047 19.125C212.947 19.675 212.772 20.075 212.522 20.325C212.172 20.575 211.872 20.7 211.622 20.7ZM203.972 50.175C202.122 50.175 200.847 49.75 200.147 48.9C199.447 48.05 199.097 47.025 199.097 45.825C199.097 45.275 199.147 44.725 199.247 44.175C199.347 43.625 199.472 43.075 199.622 42.525C199.122 43.425 198.347 44.475 197.297 45.675C196.247 46.825 195.272 47.75 194.372 48.45C194.172 48.6 193.972 48.675 193.772 48.675C193.472 48.675 193.322 48.5 193.322 48.15C193.322 47.75 193.472 47.4 193.772 47.1C195.872 44.9 197.472 43.125 198.572 41.775C199.672 40.375 200.522 39.2 201.122 38.25C201.722 37.3 202.297 36.425 202.847 35.625C203.297 34.175 203.697 32.775 204.047 31.425C204.447 30.025 205.047 28.6 205.847 27.15C206.097 26.7 206.597 26.475 207.347 26.475C207.847 26.475 208.297 26.6 208.697 26.85C209.097 27.1 209.297 27.525 209.297 28.125C209.297 28.425 209.222 28.775 209.072 29.175C208.522 30.725 207.922 32.05 207.272 33.15C206.672 34.2 205.872 35.55 204.872 37.2C203.822 38.9 202.972 40.55 202.322 42.15C201.722 43.75 201.422 45.1 201.422 46.2C201.422 46.9 201.572 47.475 201.872 47.925C202.222 48.375 202.722 48.6 203.372 48.6C204.772 48.65 205.847 48.425 206.597 47.925C207.347 47.375 207.972 46.85 208.472 46.35C209.122 45.65 209.672 45 210.122 44.4C210.622 43.8 211.072 43.275 211.472 42.825C211.772 42.525 211.922 42.575 211.922 42.975C211.922 43.225 211.847 43.55 211.697 43.95C211.597 44.35 211.472 44.65 211.322 44.85C210.822 45.55 210.222 46.325 209.522 47.175C208.872 48.025 208.097 48.75 207.197 49.35C206.297 49.9 205.222 50.175 203.972 50.175ZM232.365 4.65C232.465 4.95 232.515 5.275 232.515 5.625C232.515 6.675 232.265 8.125 231.765 9.975C231.315 11.825 230.765 13.725 230.115 15.675C229.465 17.575 228.89 19.225 228.39 20.625C226.84 24.875 225.365 28.325 223.965 30.975C222.615 33.625 221.415 35.7 220.365 37.2C219.315 38.65 218.49 39.725 217.89 40.425C217.29 41.125 216.99 41.65 216.99 42C217.34 42.75 217.64 43.85 217.89 45.3C218.14 46.7 218.29 47.925 218.34 48.975C218.74 49.075 219.24 49.125 219.84 49.125C220.34 49.125 220.865 49.075 221.415 48.975C221.965 48.875 222.49 48.725 222.99 48.525C224.59 47.825 225.915 46.85 226.965 45.6C228.015 44.3 228.765 43.325 229.215 42.675C229.415 42.425 229.615 42.3 229.815 42.3C230.065 42.3 230.24 42.45 230.34 42.75C230.44 43 230.415 43.25 230.265 43.5C229.265 45.05 228.24 46.375 227.19 47.475C226.14 48.575 224.94 49.425 223.59 50.025C222.19 50.625 221.015 50.975 220.065 51.075C219.115 51.175 218.64 51.225 218.64 51.225C218.54 51.625 218.44 52.025 218.34 52.425C218.29 52.875 218.19 53.525 218.04 54.375C217.89 55.225 217.665 56.5 217.365 58.2C216.715 61.6 215.915 64.7 214.965 67.5C214.015 70.3 212.365 72.7 210.015 74.7C209.715 74.9 209.44 75 209.19 75C208.69 75 208.165 74.8 207.615 74.4C207.065 74.05 206.715 73.6 206.565 73.05C206.415 72.5 206.29 71.7 206.19 70.65C206.09 69.65 206.015 68.625 205.965 67.575C205.915 66.525 205.89 65.7 205.89 65.1C205.89 62.95 206.24 60.1 206.94 56.55C207.64 53.05 208.615 49.15 209.865 44.85C211.115 40.5 212.615 36.05 214.365 31.5C216.115 26.9 218.04 22.5 220.14 18.3C220.89 16.8 221.74 15.2 222.69 13.5C223.69 11.8 224.69 10.2 225.69 8.7C226.74 7.15 227.74 5.9 228.69 4.95C229.64 4 230.44 3.525 231.09 3.525C231.69 3.525 232.115 3.9 232.365 4.65ZM229.59 8.4C228.99 8.75 228.34 9.575 227.64 10.875C226.99 12.125 226.34 13.525 225.69 15.075C225.04 16.575 224.415 17.925 223.815 19.125C222.465 21.875 221.09 24.875 219.69 28.125C218.34 31.325 217.015 35.05 215.715 39.3C216.265 38.75 217.015 37.8 217.965 36.45C218.915 35.1 219.915 33.5 220.965 31.65C222.015 29.75 223.04 27.8 224.04 25.8C225.09 23.8 225.965 21.9 226.665 20.1C227.265 18.7 227.815 17.25 228.315 15.75C228.815 14.2 229.215 12.8 229.515 11.55C229.815 10.3 229.965 9.4 229.965 8.85C229.965 8.4 229.84 8.25 229.59 8.4ZM215.865 45.375C215.765 44.975 215.615 44.575 215.415 44.175C215.265 43.725 214.99 43.55 214.59 43.65C214.29 44 214.04 44.4 213.84 44.85C213.69 45.3 213.615 45.95 213.615 46.8C213.615 46.8 213.765 46.95 214.065 47.25C214.415 47.5 214.84 47.55 215.34 47.4C215.49 47.3 215.64 47.2 215.79 47.1C215.94 47 216.015 46.775 216.015 46.425C216.015 46.275 216.015 46.125 216.015 45.975C216.015 45.775 215.965 45.575 215.865 45.375ZM216.165 50.625C216.165 50.625 216.065 50.65 215.865 50.7C215.665 50.75 215.415 50.775 215.115 50.775C214.715 50.775 214.265 50.675 213.765 50.475C213.265 50.225 212.915 49.775 212.715 49.125C212.315 50.725 212.015 51.9 211.815 52.65C211.615 53.4 211.465 53.95 211.365 54.3C211.265 54.65 211.165 55.025 211.065 55.425C211.015 55.825 210.915 56.5 210.765 57.45C210.615 58.4 210.365 59.85 210.015 61.8C209.815 62.8 209.64 63.925 209.49 65.175C209.34 66.475 209.265 67.625 209.265 68.625C209.265 69.375 209.315 69.975 209.415 70.425C209.565 70.875 209.765 71.075 210.015 71.025C210.315 70.975 210.615 70.65 210.915 70.05C211.265 69.5 211.615 68.85 211.965 68.1C212.315 67.4 212.64 66.825 212.94 66.375C213.39 65.675 213.715 65 213.915 64.35C214.165 63.7 214.39 62.775 214.59 61.575C214.84 60.425 215.19 58.775 215.64 56.625C215.79 55.925 215.89 55.1 215.94 54.15C216.04 53.25 216.09 52.425 216.09 51.675C216.14 50.975 216.165 50.625 216.165 50.625ZM243.24 20.7C242.89 20.7 242.54 20.65 242.19 20.55C241.89 20.4 241.59 20.225 241.29 20.025C240.64 19.725 240.315 19.075 240.315 18.075C240.315 17.625 240.415 17.125 240.615 16.575C240.865 16.025 241.24 15.5 241.74 15C242.09 14.65 242.515 14.475 243.015 14.475C243.465 14.475 243.89 14.65 244.29 15C244.49 15.2 244.615 15.525 244.665 15.975C244.765 16.375 244.815 16.825 244.815 17.325C244.815 17.925 244.765 18.525 244.665 19.125C244.565 19.675 244.39 20.075 244.14 20.325C243.79 20.575 243.49 20.7 243.24 20.7ZM235.59 50.175C233.74 50.175 232.465 49.75 231.765 48.9C231.065 48.05 230.715 47.025 230.715 45.825C230.715 45.275 230.765 44.725 230.865 44.175C230.965 43.625 231.09 43.075 231.24 42.525C230.74 43.425 229.965 44.475 228.915 45.675C227.865 46.825 226.89 47.75 225.99 48.45C225.79 48.6 225.59 48.675 225.39 48.675C225.09 48.675 224.94 48.5 224.94 48.15C224.94 47.75 225.09 47.4 225.39 47.1C227.49 44.9 229.09 43.125 230.19 41.775C231.29 40.375 232.14 39.2 232.74 38.25C233.34 37.3 233.915 36.425 234.465 35.625C234.915 34.175 235.315 32.775 235.665 31.425C236.065 30.025 236.665 28.6 237.465 27.15C237.715 26.7 238.215 26.475 238.965 26.475C239.465 26.475 239.915 26.6 240.315 26.85C240.715 27.1 240.915 27.525 240.915 28.125C240.915 28.425 240.84 28.775 240.69 29.175C240.14 30.725 239.54 32.05 238.89 33.15C238.29 34.2 237.49 35.55 236.49 37.2C235.44 38.9 234.59 40.55 233.94 42.15C233.34 43.75 233.04 45.1 233.04 46.2C233.04 46.9 233.19 47.475 233.49 47.925C233.84 48.375 234.34 48.6 234.99 48.6C236.39 48.65 237.465 48.425 238.215 47.925C238.965 47.375 239.59 46.85 240.09 46.35C240.74 45.65 241.29 45 241.74 44.4C242.24 43.8 242.69 43.275 243.09 42.825C243.39 42.525 243.54 42.575 243.54 42.975C243.54 43.225 243.465 43.55 243.315 43.95C243.215 44.35 243.09 44.65 242.94 44.85C242.44 45.55 241.84 46.325 241.14 47.175C240.49 48.025 239.715 48.75 238.815 49.35C237.915 49.9 236.84 50.175 235.59 50.175ZM256.056 46.05C254.806 47.65 253.631 48.775 252.531 49.425C251.431 50.075 250.381 50.475 249.381 50.625C248.381 50.725 247.331 50.775 246.231 50.775C244.531 50.775 243.206 50.225 242.256 49.125C241.356 47.975 240.856 46.65 240.756 45.15C240.706 44.15 240.756 42.95 240.906 41.55C241.106 40.15 241.606 38.625 242.406 36.975C243.156 35.425 243.956 34.3 244.806 33.6C245.656 32.85 246.481 32.325 247.281 32.025C248.081 31.725 248.731 31.475 249.231 31.275C249.631 31.125 250.056 31.05 250.506 31.05C251.506 31.05 252.306 31.3 252.906 31.8C253.156 32 253.306 32.275 253.356 32.625C253.456 32.925 253.506 33.25 253.506 33.6C253.506 33.8 253.481 34.025 253.431 34.275C253.431 34.475 253.406 34.675 253.356 34.875C253.256 35.525 252.956 36.375 252.456 37.425C252.006 38.425 251.581 39.4 251.181 40.35C250.881 40.65 250.556 40.8 250.206 40.8C249.806 40.8 249.706 40.575 249.906 40.125C250.156 39.125 250.481 38.3 250.881 37.65C251.331 36.95 251.556 36.35 251.556 35.85C251.606 35.7 251.631 35.55 251.631 35.4C251.631 35.25 251.631 35.125 251.631 35.025C251.631 34.325 251.331 33.85 250.731 33.6C250.431 33.5 250.206 33.45 250.056 33.45C249.406 33.45 248.656 33.75 247.806 34.35C246.956 34.95 246.256 35.775 245.706 36.825C245.056 37.975 244.581 39.275 244.281 40.725C244.031 42.175 243.906 43.4 243.906 44.4C243.906 45.6 244.331 46.6 245.181 47.4C246.081 48.15 247.156 48.475 248.406 48.375C249.806 48.225 251.156 47.85 252.456 47.25C253.806 46.65 254.956 45.725 255.906 44.475C256.056 44.375 256.206 44.325 256.356 44.325C256.506 44.325 256.581 44.425 256.581 44.625C256.581 44.825 256.506 45.1 256.356 45.45C256.256 45.75 256.156 45.95 256.056 46.05ZM280.174 45.15C280.324 45 280.524 44.925 280.774 44.925C281.124 44.925 281.299 45.1 281.299 45.45C281.299 45.65 281.174 45.95 280.924 46.35C280.724 46.75 280.274 47.225 279.574 47.775C278.874 48.375 278.149 48.925 277.399 49.425C276.699 49.925 275.724 50.175 274.474 50.175C273.124 50.175 272.049 49.925 271.249 49.425C270.499 48.925 269.949 48.375 269.599 47.775C269.299 47.125 269.099 46.625 268.999 46.275C268.399 46.725 267.774 47.325 267.124 48.075C266.524 48.775 265.649 49.425 264.499 50.025C263.349 50.575 261.699 50.85 259.549 50.85C258.349 50.85 257.249 50.575 256.249 50.025C255.299 49.425 254.824 48.15 254.824 46.2C254.824 45.65 254.849 45.075 254.899 44.475C254.999 43.825 255.149 43.125 255.349 42.375C255.949 40.025 256.649 38.175 257.449 36.825C258.249 35.475 259.449 34.475 261.049 33.825C262.049 33.425 263.274 33.05 264.724 32.7C266.174 32.35 267.449 32.05 268.549 31.8C268.899 31.7 269.199 31.375 269.449 30.825C269.749 30.225 270.074 29.675 270.424 29.175C270.624 28.925 270.849 28.725 271.099 28.575C271.349 28.375 271.624 28.275 271.924 28.275C272.174 28.275 272.499 28.4 272.899 28.65C273.249 28.9 273.474 29.375 273.574 30.075C273.724 30.775 273.799 31.425 273.799 32.025C273.749 32.325 273.624 32.7 273.424 33.15C273.274 33.55 273.149 34 273.049 34.5C272.949 35.15 272.699 36.075 272.299 37.275C271.899 38.475 271.699 39.475 271.699 40.275C271.699 40.975 271.649 41.85 271.549 42.9C271.449 43.9 271.449 44.6 271.549 45C272.099 46.2 272.874 47 273.874 47.4C274.874 47.75 275.749 47.85 276.499 47.7C277.049 47.6 277.674 47.275 278.374 46.725C279.074 46.175 279.674 45.65 280.174 45.15ZM268.024 36.6C267.924 36.2 267.674 35.775 267.274 35.325C266.924 34.875 266.474 34.65 265.924 34.65C265.824 34.65 265.624 34.7 265.324 34.8C264.474 35.1 263.574 35.675 262.624 36.525C261.674 37.325 260.849 38.375 260.149 39.675C259.449 40.975 259.049 42.5 258.949 44.25C258.949 44.75 259.099 45.4 259.399 46.2C259.749 47 260.199 47.675 260.749 48.225C261.299 48.775 261.849 48.925 262.399 48.675C263.599 48.175 264.599 47.475 265.399 46.575C266.249 45.625 266.949 44.475 267.499 43.125C267.749 42.475 267.924 41.8 268.024 41.1C268.174 40.35 268.249 39.65 268.249 39C268.249 38.4 268.224 37.9 268.174 37.5C268.124 37.05 268.074 36.75 268.024 36.6ZM294.196 25.35C294.046 25.75 293.871 26.175 293.671 26.625C293.521 27.075 293.371 27.5 293.221 27.9L293.746 27.975C294.046 28.025 294.321 28.075 294.571 28.125C294.871 28.125 295.146 28.125 295.396 28.125C295.796 28.125 296.146 28.1 296.446 28.05C296.746 27.95 296.971 27.875 297.121 27.825C297.521 27.725 297.771 27.6 297.871 27.45C297.971 27.3 298.021 27.225 298.021 27.225C298.021 27.025 298.096 26.825 298.246 26.625C298.396 26.375 298.571 26.25 298.771 26.25C299.021 26.25 299.221 26.475 299.371 26.925C299.371 26.925 299.346 27.175 299.296 27.675C299.296 28.175 298.671 28.675 297.421 29.175C296.571 29.525 295.121 29.75 293.071 29.85H292.321C292.021 30.55 291.696 31.25 291.346 31.95C291.046 32.6 290.721 33.25 290.371 33.9C289.321 35.9 288.421 37.375 287.671 38.325C286.971 39.275 286.421 40 286.021 40.5C285.621 40.95 285.346 41.5 285.196 42.15C285.146 42.45 285.096 42.725 285.046 42.975C285.046 43.225 285.046 43.475 285.046 43.725C285.046 45.575 285.571 46.925 286.621 47.775C287.721 48.625 288.771 49.05 289.771 49.05C290.921 49.05 292.071 48.65 293.221 47.85C294.371 47 295.321 46.225 296.071 45.525C296.671 45.025 297.121 44.775 297.421 44.775C297.621 44.775 297.721 44.875 297.721 45.075C297.721 45.425 297.446 45.975 296.896 46.725C296.596 47.125 296.096 47.675 295.396 48.375C294.696 49.075 293.821 49.725 292.771 50.325C291.721 50.875 290.546 51.15 289.246 51.15C286.646 51.15 284.896 50.55 283.996 49.35C283.146 48.15 282.721 46.15 282.721 43.35C282.721 41.6 282.846 39.55 283.096 37.2C283.396 34.8 283.821 32.225 284.371 29.475L283.096 29.4C282.446 29.4 281.946 29.5 281.596 29.7C281.296 29.85 281.046 29.925 280.846 29.925C280.346 29.925 280.096 29.55 280.096 28.8C280.096 27.95 280.321 27.3 280.771 26.85C281.121 26.5 281.721 26.325 282.571 26.325C282.971 26.325 283.371 26.375 283.771 26.475C284.171 26.525 284.596 26.6 285.046 26.7L285.496 24.975L286.696 20.625C286.796 20.125 286.896 19.725 286.996 19.425C287.096 19.125 287.221 18.75 287.371 18.3C288.221 15.75 289.146 13.3 290.146 10.95C291.146 8.6 292.596 6.5 294.496 4.65C294.846 4.1 295.321 3.825 295.921 3.825C296.371 3.825 296.771 4.025 297.121 4.425C297.471 4.775 297.621 5.2 297.571 5.7C297.571 5.7 297.546 6.325 297.496 7.575C297.446 8.825 297.346 10.35 297.196 12.15C297.046 13.9 296.821 15.575 296.521 17.175C296.371 18.125 296.146 19.15 295.846 20.25C295.596 21.3 295.271 22.375 294.871 23.475L294.196 25.35ZM288.121 27.15C288.471 27.25 288.796 27.325 289.096 27.375C289.446 27.425 289.821 27.5 290.221 27.6L290.896 27.675C291.096 27.325 291.271 26.95 291.421 26.55C291.571 26.1 291.721 25.7 291.871 25.35L292.696 23.325C292.896 22.775 293.071 22.3 293.221 21.9C293.371 21.45 293.521 21.05 293.671 20.7C294.221 18.85 294.671 16.95 295.021 15C295.371 13.05 295.546 11.525 295.546 10.425C295.546 9.525 295.421 9 295.171 8.85C294.871 8.8 294.396 9.375 293.746 10.575C293.096 11.775 292.396 13.35 291.646 15.3C290.896 17.25 290.171 19.325 289.471 21.525C289.421 21.725 289.371 21.925 289.321 22.125C289.271 22.275 289.221 22.45 289.171 22.65L288.571 25.275L288.121 27.15ZM286.246 37.2C286.796 36.5 287.396 35.5 288.046 34.2C288.696 32.85 289.346 31.4 289.996 29.85H289.396C289.096 29.85 288.771 29.85 288.421 29.85C288.121 29.85 287.846 29.825 287.596 29.775C287.296 31.075 287.021 32.375 286.771 33.675C286.571 34.975 286.396 36.15 286.246 37.2ZM313.834 41.85C313.184 42.95 312.359 44.15 311.359 45.45C310.359 46.7 309.309 47.775 308.209 48.675C307.159 49.575 306.159 50.025 305.209 50.025C303.659 50.025 302.434 49.95 301.534 49.8C300.684 49.6 299.984 49.325 299.434 48.975C298.484 48.325 297.709 47.475 297.109 46.425C296.509 45.375 296.159 44.3 296.059 43.2C296.009 42.9 295.984 42.6 295.984 42.3C295.984 42 295.984 41.725 295.984 41.475C295.984 38.525 296.559 35.925 297.709 33.675C298.859 31.425 300.484 30.075 302.584 29.625C303.234 29.525 303.734 29.8 304.084 30.45C304.434 31.05 304.609 31.875 304.609 32.925C304.609 34.525 304.184 36.25 303.334 38.1C302.984 38.85 302.609 39.575 302.209 40.275C301.859 40.925 301.559 41.45 301.309 41.85C300.659 42.8 300.159 43.45 299.809 43.8C299.509 44.1 299.359 44.4 299.359 44.7C299.359 45.5 299.859 46.275 300.859 47.025C301.859 47.775 303.409 48.15 305.509 48.15C306.309 48.15 307.134 47.8 307.984 47.1C308.834 46.4 309.659 45.525 310.459 44.475C311.309 43.425 312.059 42.375 312.709 41.325C313.009 40.825 313.284 40.575 313.534 40.575C313.834 40.575 313.984 40.8 313.984 41.25C313.984 41.45 313.934 41.65 313.834 41.85ZM302.584 32.4C302.384 32.1 301.959 32.175 301.309 32.625C300.709 33.025 300.159 33.975 299.659 35.475C299.309 36.575 299.134 37.85 299.134 39.3C299.134 39.7 299.134 40.1 299.134 40.5C299.184 40.9 299.234 41.3 299.284 41.7C300.134 40.25 300.734 39.175 301.084 38.475C301.484 37.725 301.784 36.95 301.984 36.15C302.084 35.75 302.234 35.25 302.434 34.65C302.684 34.05 302.809 33.525 302.809 33.075C302.809 32.775 302.734 32.55 302.584 32.4ZM337.746 20.7C337.396 20.7 337.046 20.65 336.696 20.55C336.396 20.4 336.096 20.225 335.796 20.025C335.146 19.725 334.821 19.075 334.821 18.075C334.821 17.625 334.921 17.125 335.121 16.575C335.371 16.025 335.746 15.5 336.246 15C336.596 14.65 337.021 14.475 337.521 14.475C337.971 14.475 338.396 14.65 338.796 15C338.996 15.2 339.121 15.525 339.171 15.975C339.271 16.375 339.321 16.825 339.321 17.325C339.321 17.925 339.271 18.525 339.171 19.125C339.071 19.675 338.896 20.075 338.646 20.325C338.296 20.575 337.996 20.7 337.746 20.7ZM330.096 50.175C328.246 50.175 326.971 49.75 326.271 48.9C325.571 48.05 325.221 47.025 325.221 45.825C325.221 45.275 325.271 44.725 325.371 44.175C325.471 43.625 325.596 43.075 325.746 42.525C325.246 43.425 324.471 44.475 323.421 45.675C322.371 46.825 321.396 47.75 320.496 48.45C320.296 48.6 320.096 48.675 319.896 48.675C319.596 48.675 319.446 48.5 319.446 48.15C319.446 47.75 319.596 47.4 319.896 47.1C321.996 44.9 323.596 43.125 324.696 41.775C325.796 40.375 326.646 39.2 327.246 38.25C327.846 37.3 328.421 36.425 328.971 35.625C329.421 34.175 329.821 32.775 330.171 31.425C330.571 30.025 331.171 28.6 331.971 27.15C332.221 26.7 332.721 26.475 333.471 26.475C333.971 26.475 334.421 26.6 334.821 26.85C335.221 27.1 335.421 27.525 335.421 28.125C335.421 28.425 335.346 28.775 335.196 29.175C334.646 30.725 334.046 32.05 333.396 33.15C332.796 34.2 331.996 35.55 330.996 37.2C329.946 38.9 329.096 40.55 328.446 42.15C327.846 43.75 327.546 45.1 327.546 46.2C327.546 46.9 327.696 47.475 327.996 47.925C328.346 48.375 328.846 48.6 329.496 48.6C330.896 48.65 331.971 48.425 332.721 47.925C333.471 47.375 334.096 46.85 334.596 46.35C335.246 45.65 335.796 45 336.246 44.4C336.746 43.8 337.196 43.275 337.596 42.825C337.896 42.525 338.046 42.575 338.046 42.975C338.046 43.225 337.971 43.55 337.821 43.95C337.721 44.35 337.596 44.65 337.446 44.85C336.946 45.55 336.346 46.325 335.646 47.175C334.996 48.025 334.221 48.75 333.321 49.35C332.421 49.9 331.346 50.175 330.096 50.175ZM352.863 45.9C352.213 46.55 351.638 47.2 351.138 47.85C350.638 48.5 349.538 49.25 347.838 50.1C347.638 50.4 347.188 50.85 346.488 51.45C345.838 52.05 344.538 52.4 342.588 52.5C341.288 52.55 340.238 52.225 339.438 51.525C338.688 50.875 338.113 50.075 337.713 49.125C337.313 48.175 336.963 47.3 336.663 46.5C336.613 46.55 336.388 46.75 335.988 47.1C335.588 47.45 335.188 47.8 334.788 48.15C334.338 48.5 334.063 48.725 333.963 48.825C333.913 48.875 333.813 48.9 333.663 48.9C333.413 48.9 333.213 48.775 333.063 48.525C332.863 48.225 332.863 47.975 333.063 47.775C334.013 46.825 334.738 46.1 335.238 45.6C335.738 45.05 336.188 44.525 336.588 44.025C336.988 43.525 337.463 42.9 338.013 42.15C338.863 40.85 339.763 39.7 340.713 38.7C341.713 37.65 342.338 36.875 342.588 36.375C342.638 36.325 342.663 36.225 342.663 36.075C342.663 35.925 342.588 35.8 342.438 35.7C342.338 35.6 342.263 35.475 342.213 35.325C342.013 34.525 341.913 33.775 341.913 33.075C341.913 31.975 342.338 30.675 343.188 29.175C343.538 28.925 344.013 28.725 344.613 28.575C345.213 28.375 345.688 28.35 346.038 28.5C346.438 28.7 346.688 28.925 346.788 29.175C346.938 29.425 347.063 29.75 347.163 30.15C347.163 30.2 347.163 30.25 347.163 30.3C347.213 30.35 347.238 30.425 347.238 30.525C347.238 30.825 347.188 31.15 347.088 31.5C346.988 31.85 346.863 32.225 346.713 32.625C346.713 32.825 346.463 33.2 345.963 33.75C345.513 34.3 345.363 34.65 345.513 34.8C345.813 35.45 346.313 36.3 347.013 37.35C347.863 38.55 348.438 39.65 348.738 40.65C349.088 41.65 349.263 42.55 349.263 43.35C349.263 44.3 349.113 45.125 348.813 45.825C348.563 46.525 348.363 47.125 348.213 47.625C348.663 47.675 349.188 47.45 349.788 46.95C350.388 46.4 350.963 45.8 351.513 45.15C352.113 44.45 352.563 43.95 352.863 43.65C353.163 43.35 353.388 43.2 353.538 43.2C353.788 43.2 353.788 43.575 353.538 44.325C353.338 45.075 353.113 45.6 352.863 45.9ZM345.588 31.5C345.588 31.3 345.563 31.075 345.513 30.825C345.463 30.575 345.313 30.425 345.063 30.375H344.988C344.738 30.375 344.538 30.5 344.388 30.75C344.238 30.95 344.113 31.15 344.013 31.35C343.863 31.75 343.713 32.1 343.563 32.4C343.463 32.65 343.513 32.9 343.713 33.15C343.913 33.25 344.263 33.05 344.763 32.55C345.313 32 345.588 31.65 345.588 31.5ZM345.738 43.5C345.738 42.75 345.588 41.95 345.288 41.1C345.038 40.2 344.738 39.4 344.388 38.7C344.088 38 343.863 37.55 343.713 37.35C343.713 37.35 343.413 37.725 342.813 38.475C342.213 39.175 341.563 39.95 340.863 40.8C340.413 41.3 339.963 41.95 339.513 42.75C339.063 43.55 338.788 44.25 338.688 44.85C338.688 44.85 338.913 45.15 339.363 45.75C339.813 46.3 340.363 46.825 341.013 47.325C341.713 47.825 342.388 48 343.038 47.85C344.038 47.6 344.738 47.025 345.138 46.125C345.538 45.175 345.738 44.3 345.738 43.5ZM343.188 49.35H342.513C342.313 49.35 342.088 49.35 341.838 49.35C341.588 49.3 341.338 49.25 341.088 49.2C340.838 49.1 340.463 48.9 339.963 48.6C339.463 48.3 339.213 48.15 339.213 48.15C339.213 48.15 339.188 48.2 339.138 48.3C339.138 48.4 339.138 48.525 339.138 48.675C339.138 48.875 339.163 49.1 339.213 49.35C339.313 49.6 339.488 49.85 339.738 50.1C340.138 50.4 340.488 50.65 340.788 50.85C341.088 51 341.488 51 341.988 50.85C342.338 50.75 342.613 50.475 342.813 50.025C343.063 49.575 343.188 49.35 343.188 49.35ZM385.045 28.8C385.345 29.15 385.495 29.725 385.495 30.525C385.495 31.625 385.245 33.025 384.745 34.725C384.295 36.425 383.745 38.25 383.095 40.2C382.495 42.15 381.945 44.1 381.445 46.05C380.995 47.95 380.745 49.7 380.695 51.3C380.645 53.3 380.52 55.025 380.32 56.475C380.17 57.925 379.92 59.325 379.57 60.675C379.22 62.025 378.72 63.55 378.07 65.25C377.47 66.95 376.67 69.075 375.67 71.625C373.72 74.025 371.62 75.675 369.37 76.575C367.12 77.525 364.795 77.9 362.395 77.7C361.445 77.6 360.445 76.975 359.395 75.825C358.295 74.675 357.37 73.15 356.62 71.25C355.87 69.35 355.495 67.275 355.495 65.025C355.495 64.125 355.57 63.225 355.72 62.325C355.97 60.825 356.345 59.325 356.845 57.825C357.345 56.325 358.07 55.075 359.02 54.075C359.97 53.075 361.245 52.575 362.845 52.575C364.145 52.575 365.345 53.05 366.445 54C367.595 55 368.545 56.125 369.295 57.375C370.095 58.625 370.62 59.725 370.87 60.675C371.02 61.275 371.145 61.9 371.245 62.55C371.395 63.25 371.47 63.925 371.47 64.575C371.47 65.725 371.245 66.525 370.795 66.975C370.295 67.525 369.695 67.8 368.995 67.8C368.395 67.8 367.72 67.65 366.97 67.35C366.47 67.25 365.895 66.9 365.245 66.3C364.595 65.75 364.27 65.025 364.27 64.125C364.27 63.525 364.395 62.95 364.645 62.4C364.895 61.85 365.12 61.475 365.32 61.275C365.67 60.925 365.945 60.75 366.145 60.75C366.345 60.75 366.47 60.85 366.52 61.05C366.57 61.3 366.62 61.55 366.67 61.8V61.875C366.67 62.025 366.595 62.175 366.445 62.325C366.295 62.525 366.22 62.8 366.22 63.15C366.22 64 366.445 64.6 366.895 64.95C367.395 65.35 367.745 65.55 367.945 65.55C368.595 65.55 368.92 64.9 368.92 63.6C368.92 62.55 368.62 61.275 368.02 59.775C367.52 58.525 366.82 57.425 365.92 56.475C365.02 55.575 363.995 55.025 362.845 54.825C362.195 54.725 361.52 54.875 360.82 55.275C360.07 55.725 359.42 56.525 358.87 57.675C358.52 58.325 358.295 59.05 358.195 59.85C358.045 60.65 357.97 61.45 357.97 62.25C357.97 63.3 358.045 64.2 358.195 64.95C358.295 67.85 359.07 70.075 360.52 71.625C361.97 73.225 363.845 74.025 366.145 74.025C366.395 74.025 366.645 74.025 366.895 74.025C367.145 74.025 367.395 74 367.645 73.95C369.145 73.75 370.595 73 371.995 71.7C373.395 70.45 374.57 68.95 375.52 67.2C376.12 66.15 376.545 64.85 376.795 63.3C377.045 61.8 377.22 60.225 377.32 58.575C377.47 56.925 377.645 55.45 377.845 54.15C377.945 53.7 377.995 53.3 377.995 52.95C377.995 52.65 377.995 52.4 377.995 52.2C377.995 51.65 377.945 51.1 377.845 50.55C377.795 49.95 377.77 48.95 377.77 47.55C377.77 47.15 377.77 46.7 377.77 46.2C377.77 45.7 377.795 45.125 377.845 44.475C375.495 45.775 373.395 46.425 371.545 46.425C369.295 46.425 367.42 45.45 365.92 43.5C365.37 42.8 365.095 42 365.095 41.1C365.095 39.9 365.495 38.65 366.295 37.35C367.145 36 368.245 34.725 369.595 33.525C370.995 32.275 372.495 31.225 374.095 30.375C375.745 29.475 377.345 28.9 378.895 28.65C379.595 28.55 380.295 28.4 380.995 28.2C381.745 27.95 382.42 27.825 383.02 27.825C383.87 27.825 384.545 28.15 385.045 28.8ZM381.295 34.35C381.395 33.9 381.495 33.475 381.595 33.075C381.745 32.625 381.82 32.225 381.82 31.875C381.82 31.625 381.795 31.375 381.745 31.125C381.695 30.825 381.545 30.575 381.295 30.375C380.995 30.025 380.52 29.85 379.87 29.85C379.02 29.85 377.995 30.175 376.795 30.825C375.595 31.475 374.42 32.375 373.27 33.525C372.17 34.625 371.32 35.95 370.72 37.5C370.47 38.15 370.22 38.975 369.97 39.975C369.72 40.925 369.595 41.825 369.595 42.675C369.595 43.475 369.72 44.075 369.97 44.475C370.27 44.825 370.82 45 371.62 45C372.37 45 373.195 44.85 374.095 44.55C375.045 44.2 375.845 43.75 376.495 43.2C377.995 41.8 379.07 40.35 379.72 38.85C380.42 37.3 380.945 35.8 381.295 34.35ZM402.711 20.7C402.361 20.7 402.011 20.65 401.661 20.55C401.361 20.4 401.061 20.225 400.761 20.025C400.111 19.725 399.786 19.075 399.786 18.075C399.786 17.625 399.886 17.125 400.086 16.575C400.336 16.025 400.711 15.5 401.211 15C401.561 14.65 401.986 14.475 402.486 14.475C402.936 14.475 403.361 14.65 403.761 15C403.961 15.2 404.086 15.525 404.136 15.975C404.236 16.375 404.286 16.825 404.286 17.325C404.286 17.925 404.236 18.525 404.136 19.125C404.036 19.675 403.861 20.075 403.611 20.325C403.261 20.575 402.961 20.7 402.711 20.7ZM395.061 50.175C393.211 50.175 391.936 49.75 391.236 48.9C390.536 48.05 390.186 47.025 390.186 45.825C390.186 45.275 390.236 44.725 390.336 44.175C390.436 43.625 390.561 43.075 390.711 42.525C390.211 43.425 389.436 44.475 388.386 45.675C387.336 46.825 386.361 47.75 385.461 48.45C385.261 48.6 385.061 48.675 384.861 48.675C384.561 48.675 384.411 48.5 384.411 48.15C384.411 47.75 384.561 47.4 384.861 47.1C386.961 44.9 388.561 43.125 389.661 41.775C390.761 40.375 391.611 39.2 392.211 38.25C392.811 37.3 393.386 36.425 393.936 35.625C394.386 34.175 394.786 32.775 395.136 31.425C395.536 30.025 396.136 28.6 396.936 27.15C397.186 26.7 397.686 26.475 398.436 26.475C398.936 26.475 399.386 26.6 399.786 26.85C400.186 27.1 400.386 27.525 400.386 28.125C400.386 28.425 400.311 28.775 400.161 29.175C399.611 30.725 399.011 32.05 398.361 33.15C397.761 34.2 396.961 35.55 395.961 37.2C394.911 38.9 394.061 40.55 393.411 42.15C392.811 43.75 392.511 45.1 392.511 46.2C392.511 46.9 392.661 47.475 392.961 47.925C393.311 48.375 393.811 48.6 394.461 48.6C395.861 48.65 396.936 48.425 397.686 47.925C398.436 47.375 399.061 46.85 399.561 46.35C400.211 45.65 400.761 45 401.211 44.4C401.711 43.8 402.161 43.275 402.561 42.825C402.861 42.525 403.011 42.575 403.011 42.975C403.011 43.225 402.936 43.55 402.786 43.95C402.686 44.35 402.561 44.65 402.411 44.85C401.911 45.55 401.311 46.325 400.611 47.175C399.961 48.025 399.186 48.75 398.286 49.35C397.386 49.9 396.311 50.175 395.061 50.175ZM418.804 30.525C418.504 31.625 418.154 32.65 417.754 33.6C417.354 34.55 416.879 35.4 416.329 36.15C415.429 37.4 414.429 38.75 413.329 40.2C412.229 41.65 411.179 43.3 410.179 45.15C409.429 46 408.654 46.95 407.854 48C407.104 49.05 406.379 49.925 405.679 50.625C404.979 51.275 404.329 51.525 403.729 51.375C403.229 51.225 402.804 50.775 402.454 50.025C402.154 49.275 401.929 48.4 401.779 47.4C401.629 46.4 401.529 45.45 401.479 44.55C401.479 43.65 401.504 43.025 401.554 42.675C401.804 41.425 402.104 40.2 402.454 39C402.854 37.75 403.054 36.8 403.054 36.15C403.054 35.9 402.679 35.65 401.929 35.4C401.179 35.1 400.579 34.725 400.129 34.275C400.079 34.225 400.054 34.075 400.054 33.825C400.054 33.525 400.104 33.225 400.204 32.925C400.354 32.575 400.504 32.5 400.654 32.7C401.104 33.2 401.629 33.625 402.229 33.975C402.829 34.275 403.154 34.4 403.204 34.35C404.104 34.1 404.654 33.55 404.854 32.7C405.104 31.85 405.554 31.05 406.204 30.3C406.754 29.7 407.229 29.4 407.629 29.4C408.279 29.4 408.729 29.775 408.979 30.525C409.029 30.675 409.104 30.85 409.204 31.05C409.304 31.25 409.354 31.5 409.354 31.8C409.354 32.25 409.229 32.7 408.979 33.15C408.629 33.8 408.279 34.375 407.929 34.875C407.579 35.325 406.829 35.75 405.679 36.15C405.429 36.4 405.079 37.2 404.629 38.55C404.179 39.85 403.954 41.45 403.954 43.35C403.954 44.35 404.029 45.25 404.179 46.05C404.379 46.85 404.929 47.3 405.829 47.4C406.829 46.65 407.879 45.525 408.979 44.025C410.129 42.525 411.029 40.9 411.679 39.15C411.879 38.6 412.179 37.825 412.579 36.825C413.029 35.775 413.529 34.7 414.079 33.6C414.679 32.45 415.279 31.375 415.879 30.375C416.479 29.375 417.029 28.625 417.529 28.125C417.829 27.975 418.079 27.9 418.279 27.9C418.779 27.9 419.029 28.3 419.029 29.1C419.029 29.65 418.954 30.125 418.804 30.525ZM407.029 33.15C407.029 32.85 406.954 32.625 406.804 32.475H406.729C406.579 32.475 406.429 32.575 406.279 32.775C406.179 32.925 406.104 33.1 406.054 33.3C405.904 33.55 405.929 33.775 406.129 33.975C406.179 34.025 406.254 34.05 406.354 34.05C406.704 34.05 406.929 33.75 407.029 33.15ZM435.196 41.85C434.546 42.95 433.721 44.15 432.721 45.45C431.721 46.7 430.671 47.775 429.571 48.675C428.521 49.575 427.521 50.025 426.571 50.025C425.021 50.025 423.796 49.95 422.896 49.8C422.046 49.6 421.346 49.325 420.796 48.975C419.846 48.325 419.071 47.475 418.471 46.425C417.871 45.375 417.521 44.3 417.421 43.2C417.371 42.9 417.346 42.6 417.346 42.3C417.346 42 417.346 41.725 417.346 41.475C417.346 38.525 417.921 35.925 419.071 33.675C420.221 31.425 421.846 30.075 423.946 29.625C424.596 29.525 425.096 29.8 425.446 30.45C425.796 31.05 425.971 31.875 425.971 32.925C425.971 34.525 425.546 36.25 424.696 38.1C424.346 38.85 423.971 39.575 423.571 40.275C423.221 40.925 422.921 41.45 422.671 41.85C422.021 42.8 421.521 43.45 421.171 43.8C420.871 44.1 420.721 44.4 420.721 44.7C420.721 45.5 421.221 46.275 422.221 47.025C423.221 47.775 424.771 48.15 426.871 48.15C427.671 48.15 428.496 47.8 429.346 47.1C430.196 46.4 431.021 45.525 431.821 44.475C432.671 43.425 433.421 42.375 434.071 41.325C434.371 40.825 434.646 40.575 434.896 40.575C435.196 40.575 435.346 40.8 435.346 41.25C435.346 41.45 435.296 41.65 435.196 41.85ZM423.946 32.4C423.746 32.1 423.321 32.175 422.671 32.625C422.071 33.025 421.521 33.975 421.021 35.475C420.671 36.575 420.496 37.85 420.496 39.3C420.496 39.7 420.496 40.1 420.496 40.5C420.546 40.9 420.596 41.3 420.646 41.7C421.496 40.25 422.096 39.175 422.446 38.475C422.846 37.725 423.146 36.95 423.346 36.15C423.446 35.75 423.596 35.25 423.796 34.65C424.046 34.05 424.171 33.525 424.171 33.075C424.171 32.775 424.096 32.55 423.946 32.4ZM445.894 37.35C445.894 38.5 445.794 39.35 445.594 39.9C445.444 40.45 445.219 40.9 444.919 41.25C444.669 41.6 444.394 42 444.094 42.45C443.794 42.9 443.544 43.575 443.344 44.475C443.194 45.325 443.119 46.575 443.119 48.225C443.119 48.875 443.369 49.4 443.869 49.8C444.369 50.2 444.944 50.4 445.594 50.4C445.894 50.4 446.044 50.5 446.044 50.7C446.044 50.95 445.844 51.25 445.444 51.6C445.094 52 444.769 52.2 444.469 52.2C443.369 52.2 442.569 51.775 442.069 50.925C441.569 50.025 441.319 49.075 441.319 48.075C441.319 46.425 441.369 45.125 441.469 44.175C441.569 43.175 441.669 42.25 441.769 41.4C441.869 40.5 441.894 39.4 441.844 38.1C441.794 37.2 441.669 36.5 441.469 36C441.269 35.45 440.744 35.175 439.894 35.175C439.444 35.175 439.119 35.25 438.919 35.4C438.769 35.55 438.569 35.8 438.319 36.15C437.769 36.95 437.294 38.075 436.894 39.525C436.544 40.925 436.244 42.425 435.994 44.025C435.794 45.575 435.594 46.975 435.394 48.225C435.244 49.425 435.094 50.225 434.944 50.625C434.794 50.975 434.594 51.225 434.344 51.375C434.144 51.525 433.919 51.6 433.669 51.6C433.469 51.6 433.269 51.55 433.069 51.45C432.919 51.4 432.794 51.35 432.694 51.3C432.444 51.15 432.319 50.9 432.319 50.55C432.319 50.2 432.394 49.8 432.544 49.35C432.744 48.85 432.894 48.4 432.994 48C433.094 47.6 433.244 46.9 433.444 45.9C433.694 44.85 433.944 43.775 434.194 42.675C434.444 41.525 434.644 40.55 434.794 39.75C434.994 38.9 435.094 38.475 435.094 38.475C434.844 38.475 434.594 38.5 434.344 38.55C434.094 38.55 433.844 38.55 433.594 38.55C432.844 38.55 432.469 38.25 432.469 37.65C432.469 37.25 432.619 36.65 432.919 35.85C433.219 35.05 433.769 34 434.569 32.7C434.819 32.3 435.319 31.8 436.069 31.2C436.819 30.6 437.444 30.35 437.944 30.45C438.144 30.35 438.319 30.3 438.469 30.3C438.619 30.3 438.744 30.3 438.844 30.3C439.394 30.3 439.694 30.5 439.744 30.9C439.844 31.25 439.869 31.625 439.819 32.025C439.769 32.375 439.794 32.525 439.894 32.475C440.594 32.175 441.294 32.025 441.994 32.025C443.044 32.025 443.944 32.45 444.694 33.3C445.494 34.1 445.894 35.45 445.894 37.35ZM483.308 21.375C483.308 21.375 483.308 21.55 483.308 21.9C483.358 22.25 483.258 22.675 483.008 23.175C482.758 23.675 482.208 24.175 481.358 24.675C481.058 24.875 480.508 25.025 479.708 25.125C478.908 25.225 478.008 25.3 477.008 25.35C476.458 26.8 475.858 28.275 475.208 29.775C474.558 31.225 473.883 32.6 473.183 33.9C472.133 35.9 471.233 37.375 470.483 38.325C469.783 39.275 469.233 40 468.833 40.5C468.433 40.95 468.158 41.5 468.008 42.15C467.958 42.45 467.908 42.725 467.858 42.975C467.858 43.225 467.858 43.475 467.858 43.725C467.858 45.575 468.383 46.925 469.433 47.775C470.533 48.625 471.583 49.05 472.583 49.05C473.733 49.05 474.883 48.65 476.033 47.85C477.183 47 478.133 46.225 478.883 45.525C479.483 45.025 479.933 44.775 480.233 44.775C480.433 44.775 480.533 44.875 480.533 45.075C480.533 45.425 480.258 45.975 479.708 46.725C479.408 47.125 478.908 47.675 478.208 48.375C477.508 49.075 476.633 49.725 475.583 50.325C474.533 50.875 473.358 51.15 472.058 51.15C469.458 51.15 467.708 50.55 466.808 49.35C465.958 48.15 465.533 46.15 465.533 43.35C465.533 41.15 465.758 38.45 466.208 35.25C466.658 32 467.358 28.575 468.308 24.975C468.058 24.975 467.808 24.975 467.558 24.975C467.308 24.925 467.083 24.9 466.883 24.9C466.233 24.9 465.733 25 465.383 25.2C465.083 25.35 464.833 25.425 464.633 25.425C464.133 25.425 463.883 25.05 463.883 24.3C463.883 23.45 464.108 22.8 464.558 22.35C464.908 22 465.508 21.825 466.358 21.825C467.008 21.825 467.883 21.95 468.983 22.2C469.083 21.9 469.183 21.625 469.283 21.375C469.383 21.125 469.458 20.875 469.508 20.625C469.608 20.125 469.708 19.725 469.808 19.425C469.908 19.125 470.033 18.75 470.183 18.3C471.033 15.75 471.958 13.3 472.958 10.95C473.958 8.6 475.408 6.5 477.308 4.65C477.658 4.1 478.133 3.825 478.733 3.825C479.183 3.825 479.583 4.025 479.933 4.425C480.283 4.775 480.433 5.2 480.383 5.7C480.383 5.7 480.358 6.325 480.308 7.575C480.258 8.825 480.158 10.35 480.008 12.15C479.858 13.9 479.633 15.575 479.333 17.175C479.183 18.125 478.958 19.15 478.658 20.25C478.408 21.3 478.083 22.375 477.683 23.475C477.983 23.525 478.258 23.575 478.508 23.625C478.808 23.625 479.083 23.625 479.333 23.625C480.083 23.625 480.658 23.525 481.058 23.325C481.508 23.075 481.758 22.825 481.808 22.575C481.908 22.325 481.958 22.2 481.958 22.2C481.958 21.2 482.208 20.7 482.708 20.7C482.958 20.7 483.158 20.925 483.308 21.375ZM477.983 8.85C477.683 8.8 477.208 9.375 476.558 10.575C475.908 11.775 475.208 13.35 474.458 15.3C473.708 17.25 472.983 19.325 472.283 21.525C472.233 21.725 472.183 21.925 472.133 22.125C472.083 22.275 472.033 22.45 471.983 22.65C472.333 22.75 472.683 22.825 473.033 22.875C473.383 22.925 473.758 23 474.158 23.1C474.358 23.15 474.583 23.175 474.833 23.175C475.083 23.175 475.308 23.225 475.508 23.325C475.708 22.775 475.883 22.3 476.033 21.9C476.183 21.45 476.333 21.05 476.483 20.7C477.033 18.85 477.483 16.95 477.833 15C478.183 13.05 478.358 11.525 478.358 10.425C478.358 9.525 478.233 9 477.983 8.85ZM474.683 25.35H473.333C472.983 25.35 472.633 25.35 472.283 25.35C471.983 25.35 471.683 25.325 471.383 25.275C470.933 27.175 470.483 29.225 470.033 31.425C469.633 33.575 469.308 35.5 469.058 37.2C469.658 36.5 470.283 35.5 470.933 34.2C471.583 32.9 472.233 31.475 472.883 29.925C473.533 28.325 474.133 26.8 474.683 25.35ZM495.746 36.9C495.746 37.95 495.521 39.325 495.071 41.025C494.621 42.725 494.021 44.325 493.271 45.825C492.571 47.375 491.771 48.525 490.871 49.275C490.021 49.975 489.196 50.475 488.396 50.775C487.596 51.025 486.946 51.275 486.446 51.525C486.246 51.575 486.021 51.625 485.771 51.675C485.571 51.775 485.346 51.825 485.096 51.825C484.096 51.825 483.321 51.55 482.771 51C482.571 50.8 482.246 50.6 481.796 50.4C481.396 50.2 481.021 49.85 480.671 49.35C480.321 48.85 480.146 48.025 480.146 46.875C480.146 45.675 480.296 44.525 480.596 43.425C479.696 42.375 479.246 41.225 479.246 39.975C479.246 39.225 479.421 38.5 479.771 37.8C480.721 36 481.921 34.6 483.371 33.6C484.821 32.6 486.196 31.9 487.496 31.5C488.846 31.1 489.771 30.9 490.271 30.9C492.121 30.9 493.496 31.5 494.396 32.7C495.296 33.9 495.746 35.3 495.746 36.9ZM492.671 37.275C492.671 36.125 492.271 35.175 491.471 34.425C490.721 33.675 489.771 33.3 488.621 33.3C487.671 33.3 486.696 33.6 485.696 34.2C484.746 34.75 483.921 35.45 483.221 36.3C482.521 37.15 482.071 37.975 481.871 38.775C481.821 39.075 481.771 39.35 481.721 39.6C481.721 39.85 481.721 40.1 481.721 40.35C482.271 39.15 482.846 38.15 483.446 37.35C484.096 36.55 484.571 36.05 484.871 35.85C485.121 35.65 485.446 35.55 485.846 35.55C486.396 35.55 486.671 35.7 486.671 36C486.671 36.2 486.396 36.575 485.846 37.125C485.346 37.625 484.771 38.3 484.121 39.15C483.471 39.95 482.921 40.95 482.471 42.15C482.871 42.65 483.396 43.025 484.046 43.275C484.746 43.475 485.421 43.575 486.071 43.575C486.771 43.575 487.421 43.45 488.021 43.2C488.671 42.9 489.096 42.5 489.296 42C489.346 41.85 489.371 41.725 489.371 41.625C489.421 41.475 489.446 41.35 489.446 41.25C489.446 40.75 489.221 40.45 488.771 40.35C488.371 40.2 487.971 40.15 487.571 40.2H487.421C486.871 40.2 486.596 40.075 486.596 39.825C486.596 39.675 486.646 39.525 486.746 39.375C486.896 39.225 487.021 39.1 487.121 39C487.421 38.7 487.746 38.55 488.096 38.55C488.596 38.55 489.146 38.875 489.746 39.525C490.296 40.275 490.571 41 490.571 41.7C490.571 42.6 490.121 43.3 489.221 43.8C488.371 44.3 487.421 44.65 486.371 44.85C485.321 45.05 484.521 45.15 483.971 45.15C483.171 45.15 482.521 44.975 482.021 44.625C481.971 44.725 481.946 44.95 481.946 45.3C481.946 46.7 482.321 47.65 483.071 48.15C483.821 48.6 484.446 48.95 484.946 49.2C485.246 49.3 485.496 49.35 485.696 49.35C486.396 49.35 487.121 49.05 487.871 48.45C488.671 47.85 489.371 47.025 489.971 45.975C490.421 45.175 490.846 44.225 491.246 43.125C491.646 42.025 491.971 40.95 492.221 39.9C492.521 38.8 492.671 37.925 492.671 37.275ZM526.374 45.9C525.724 46.55 525.149 47.2 524.649 47.85C524.149 48.5 523.049 49.25 521.349 50.1C521.149 50.4 520.699 50.85 519.999 51.45C519.349 52.05 518.049 52.4 516.099 52.5C514.799 52.55 513.749 52.225 512.949 51.525C512.199 50.875 511.624 50.075 511.224 49.125C510.824 48.175 510.474 47.3 510.174 46.5C510.124 46.55 509.899 46.75 509.499 47.1C509.099 47.45 508.699 47.8 508.299 48.15C507.849 48.5 507.574 48.725 507.474 48.825C507.424 48.875 507.324 48.9 507.174 48.9C506.924 48.9 506.724 48.775 506.574 48.525C506.374 48.225 506.374 47.975 506.574 47.775C507.524 46.825 508.249 46.1 508.749 45.6C509.249 45.05 509.699 44.525 510.099 44.025C510.499 43.525 510.974 42.9 511.524 42.15C512.374 40.85 513.274 39.7 514.224 38.7C515.224 37.65 515.849 36.875 516.099 36.375C516.149 36.325 516.174 36.225 516.174 36.075C516.174 35.925 516.099 35.8 515.949 35.7C515.849 35.6 515.774 35.475 515.724 35.325C515.524 34.525 515.424 33.775 515.424 33.075C515.424 31.975 515.849 30.675 516.699 29.175C517.049 28.925 517.524 28.725 518.124 28.575C518.724 28.375 519.199 28.35 519.549 28.5C519.949 28.7 520.199 28.925 520.299 29.175C520.449 29.425 520.574 29.75 520.674 30.15C520.674 30.2 520.674 30.25 520.674 30.3C520.724 30.35 520.749 30.425 520.749 30.525C520.749 30.825 520.699 31.15 520.599 31.5C520.499 31.85 520.374 32.225 520.224 32.625C520.224 32.825 519.974 33.2 519.474 33.75C519.024 34.3 518.874 34.65 519.024 34.8C519.324 35.45 519.824 36.3 520.524 37.35C521.374 38.55 521.949 39.65 522.249 40.65C522.599 41.65 522.774 42.55 522.774 43.35C522.774 44.3 522.624 45.125 522.324 45.825C522.074 46.525 521.874 47.125 521.724 47.625C522.174 47.675 522.699 47.45 523.299 46.95C523.899 46.4 524.474 45.8 525.024 45.15C525.624 44.45 526.074 43.95 526.374 43.65C526.674 43.35 526.899 43.2 527.049 43.2C527.299 43.2 527.299 43.575 527.049 44.325C526.849 45.075 526.624 45.6 526.374 45.9ZM519.099 31.5C519.099 31.3 519.074 31.075 519.024 30.825C518.974 30.575 518.824 30.425 518.574 30.375H518.499C518.249 30.375 518.049 30.5 517.899 30.75C517.749 30.95 517.624 31.15 517.524 31.35C517.374 31.75 517.224 32.1 517.074 32.4C516.974 32.65 517.024 32.9 517.224 33.15C517.424 33.25 517.774 33.05 518.274 32.55C518.824 32 519.099 31.65 519.099 31.5ZM519.249 43.5C519.249 42.75 519.099 41.95 518.799 41.1C518.549 40.2 518.249 39.4 517.899 38.7C517.599 38 517.374 37.55 517.224 37.35C517.224 37.35 516.924 37.725 516.324 38.475C515.724 39.175 515.074 39.95 514.374 40.8C513.924 41.3 513.474 41.95 513.024 42.75C512.574 43.55 512.299 44.25 512.199 44.85C512.199 44.85 512.424 45.15 512.874 45.75C513.324 46.3 513.874 46.825 514.524 47.325C515.224 47.825 515.899 48 516.549 47.85C517.549 47.6 518.249 47.025 518.649 46.125C519.049 45.175 519.249 44.3 519.249 43.5ZM516.699 49.35H516.024C515.824 49.35 515.599 49.35 515.349 49.35C515.099 49.3 514.849 49.25 514.599 49.2C514.349 49.1 513.974 48.9 513.474 48.6C512.974 48.3 512.724 48.15 512.724 48.15C512.724 48.15 512.699 48.2 512.649 48.3C512.649 48.4 512.649 48.525 512.649 48.675C512.649 48.875 512.674 49.1 512.724 49.35C512.824 49.6 512.999 49.85 513.249 50.1C513.649 50.4 513.999 50.65 514.299 50.85C514.599 51 514.999 51 515.499 50.85C515.849 50.75 516.124 50.475 516.324 50.025C516.574 49.575 516.699 49.35 516.699 49.35ZM541.743 36.9C541.743 37.95 541.518 39.325 541.068 41.025C540.618 42.725 540.018 44.325 539.268 45.825C538.568 47.375 537.768 48.525 536.868 49.275C536.018 49.975 535.193 50.475 534.393 50.775C533.593 51.025 532.943 51.275 532.443 51.525C532.243 51.575 532.018 51.625 531.768 51.675C531.568 51.775 531.343 51.825 531.093 51.825C530.093 51.825 529.318 51.55 528.768 51C528.568 50.8 528.243 50.6 527.793 50.4C527.393 50.2 527.018 49.85 526.668 49.35C526.318 48.85 526.143 48.025 526.143 46.875C526.143 45.675 526.293 44.525 526.593 43.425C525.693 42.375 525.243 41.225 525.243 39.975C525.243 39.225 525.418 38.5 525.768 37.8C526.718 36 527.918 34.6 529.368 33.6C530.818 32.6 532.193 31.9 533.493 31.5C534.843 31.1 535.768 30.9 536.268 30.9C538.118 30.9 539.493 31.5 540.393 32.7C541.293 33.9 541.743 35.3 541.743 36.9ZM538.668 37.275C538.668 36.125 538.268 35.175 537.468 34.425C536.718 33.675 535.768 33.3 534.618 33.3C533.668 33.3 532.693 33.6 531.693 34.2C530.743 34.75 529.918 35.45 529.218 36.3C528.518 37.15 528.068 37.975 527.868 38.775C527.818 39.075 527.768 39.35 527.718 39.6C527.718 39.85 527.718 40.1 527.718 40.35C528.268 39.15 528.843 38.15 529.443 37.35C530.093 36.55 530.568 36.05 530.868 35.85C531.118 35.65 531.443 35.55 531.843 35.55C532.393 35.55 532.668 35.7 532.668 36C532.668 36.2 532.393 36.575 531.843 37.125C531.343 37.625 530.768 38.3 530.118 39.15C529.468 39.95 528.918 40.95 528.468 42.15C528.868 42.65 529.393 43.025 530.043 43.275C530.743 43.475 531.418 43.575 532.068 43.575C532.768 43.575 533.418 43.45 534.018 43.2C534.668 42.9 535.093 42.5 535.293 42C535.343 41.85 535.368 41.725 535.368 41.625C535.418 41.475 535.443 41.35 535.443 41.25C535.443 40.75 535.218 40.45 534.768 40.35C534.368 40.2 533.968 40.15 533.568 40.2H533.418C532.868 40.2 532.593 40.075 532.593 39.825C532.593 39.675 532.643 39.525 532.743 39.375C532.893 39.225 533.018 39.1 533.118 39C533.418 38.7 533.743 38.55 534.093 38.55C534.593 38.55 535.143 38.875 535.743 39.525C536.293 40.275 536.568 41 536.568 41.7C536.568 42.6 536.118 43.3 535.218 43.8C534.368 44.3 533.418 44.65 532.368 44.85C531.318 45.05 530.518 45.15 529.968 45.15C529.168 45.15 528.518 44.975 528.018 44.625C527.968 44.725 527.943 44.95 527.943 45.3C527.943 46.7 528.318 47.65 529.068 48.15C529.818 48.6 530.443 48.95 530.943 49.2C531.243 49.3 531.493 49.35 531.693 49.35C532.393 49.35 533.118 49.05 533.868 48.45C534.668 47.85 535.368 47.025 535.968 45.975C536.418 45.175 536.843 44.225 537.243 43.125C537.643 42.025 537.968 40.95 538.218 39.9C538.518 38.8 538.668 37.925 538.668 37.275ZM567.407 47.1C567.257 47.4 566.782 47.95 565.982 48.75C565.232 49.5 564.282 49.95 563.132 50.1C562.332 50.2 561.757 49.75 561.407 48.75C561.107 47.7 560.957 46.5 560.957 45.15C560.957 44.6 560.982 44.05 561.032 43.5C561.082 42.9 561.157 42.35 561.257 41.85C561.357 41.3 561.457 40.775 561.557 40.275C561.657 39.775 561.707 39.35 561.707 39C561.707 38.15 561.382 37.825 560.732 38.025C560.282 38.575 559.857 39.4 559.457 40.5C559.107 41.6 558.807 42.425 558.557 42.975C558.007 44.225 557.557 45.275 557.207 46.125C556.857 46.975 556.407 47.4 555.857 47.4C555.407 47.4 555.182 46.975 555.182 46.125C555.182 45.425 555.282 44.7 555.482 43.95C555.682 43.2 555.782 42.825 555.782 42.825C556.032 42.125 556.257 41.35 556.457 40.5C556.707 39.6 556.907 38.825 557.057 38.175C557.207 37.475 557.282 37.125 557.282 37.125C557.282 37.025 557.282 36.875 557.282 36.675C557.332 36.475 557.357 36.275 557.357 36.075C557.357 35.675 557.282 35.3 557.132 34.95C557.032 34.6 556.732 34.4 556.232 34.35C555.932 34.3 555.432 34.6 554.732 35.25C554.082 35.85 553.407 36.6 552.707 37.5C552.057 38.35 551.532 39.15 551.132 39.9C550.482 41.25 550.032 42.625 549.782 44.025C549.532 45.425 549.307 46.725 549.107 47.925C548.957 49.075 548.682 50.025 548.282 50.775C548.132 51.075 547.832 51.225 547.382 51.225C547.032 51.225 546.657 51.125 546.257 50.925C545.907 50.675 545.732 50.4 545.732 50.1C545.832 49.2 546.032 48.125 546.332 46.875C546.682 45.625 547.057 44.125 547.457 42.375C547.607 41.775 547.732 41.075 547.832 40.275C547.932 39.475 548.007 38.875 548.057 38.475V38.325C548.057 37.625 547.732 37.275 547.082 37.275C546.832 37.275 546.557 37.35 546.257 37.5C545.307 38.3 544.507 39.175 543.857 40.125C543.207 41.075 542.682 41.9 542.282 42.6C541.832 43.3 541.432 43.725 541.082 43.875C540.932 43.925 540.857 43.775 540.857 43.425C540.857 43.225 540.882 43 540.932 42.75C540.982 42.5 541.107 42.25 541.307 42C541.757 41.55 542.232 40.825 542.732 39.825C543.232 38.825 543.757 37.8 544.307 36.75C544.907 35.65 545.557 34.725 546.257 33.975C547.007 33.175 547.807 32.775 548.657 32.775C549.157 32.775 549.657 33.125 550.157 33.825C550.707 34.525 551.032 35.425 551.132 36.525C551.982 35.825 552.782 35.075 553.532 34.275C554.282 33.425 555.157 32.675 556.157 32.025C556.557 31.825 556.982 31.725 557.432 31.725C558.182 31.725 558.682 31.95 558.932 32.4C559.282 32.85 559.482 33.5 559.532 34.35C559.582 35.2 559.657 35.65 559.757 35.7C559.857 35.75 560.082 35.6 560.432 35.25C560.832 34.85 561.382 34.7 562.082 34.8C562.332 34.8 562.682 34.95 563.132 35.25C563.582 35.55 563.807 35.925 563.807 36.375C563.807 37.025 563.757 37.825 563.657 38.775C563.557 39.675 563.432 40.625 563.282 41.625C563.232 41.825 563.207 42.1 563.207 42.45C563.207 42.75 563.207 43.1 563.207 43.5C563.207 44.15 563.257 44.85 563.357 45.6C563.507 46.3 563.832 46.825 564.332 47.175C564.482 47.325 564.682 47.4 564.932 47.4C565.482 47.4 566.207 46.925 567.107 45.975C567.257 45.825 567.382 45.75 567.482 45.75C567.632 45.75 567.707 45.9 567.707 46.2C567.707 46.6 567.607 46.9 567.407 47.1ZM585.343 41.85C584.693 42.95 583.868 44.15 582.868 45.45C581.868 46.7 580.818 47.775 579.718 48.675C578.668 49.575 577.668 50.025 576.718 50.025C575.168 50.025 573.943 49.95 573.043 49.8C572.193 49.6 571.493 49.325 570.943 48.975C569.993 48.325 569.218 47.475 568.618 46.425C568.018 45.375 567.668 44.3 567.568 43.2C567.518 42.9 567.493 42.6 567.493 42.3C567.493 42 567.493 41.725 567.493 41.475C567.493 38.525 568.068 35.925 569.218 33.675C570.368 31.425 571.993 30.075 574.093 29.625C574.743 29.525 575.243 29.8 575.593 30.45C575.943 31.05 576.118 31.875 576.118 32.925C576.118 34.525 575.693 36.25 574.843 38.1C574.493 38.85 574.118 39.575 573.718 40.275C573.368 40.925 573.068 41.45 572.818 41.85C572.168 42.8 571.668 43.45 571.318 43.8C571.018 44.1 570.868 44.4 570.868 44.7C570.868 45.5 571.368 46.275 572.368 47.025C573.368 47.775 574.918 48.15 577.018 48.15C577.818 48.15 578.643 47.8 579.493 47.1C580.343 46.4 581.168 45.525 581.968 44.475C582.818 43.425 583.568 42.375 584.218 41.325C584.518 40.825 584.793 40.575 585.043 40.575C585.343 40.575 585.493 40.8 585.493 41.25C585.493 41.45 585.443 41.65 585.343 41.85ZM574.093 32.4C573.893 32.1 573.468 32.175 572.818 32.625C572.218 33.025 571.668 33.975 571.168 35.475C570.818 36.575 570.643 37.85 570.643 39.3C570.643 39.7 570.643 40.1 570.643 40.5C570.693 40.9 570.743 41.3 570.793 41.7C571.643 40.25 572.243 39.175 572.593 38.475C572.993 37.725 573.293 36.95 573.493 36.15C573.593 35.75 573.743 35.25 573.943 34.65C574.193 34.05 574.318 33.525 574.318 33.075C574.318 32.775 574.243 32.55 574.093 32.4ZM598.066 36.9C598.066 37.95 597.841 39.325 597.391 41.025C596.941 42.725 596.341 44.325 595.591 45.825C594.891 47.375 594.091 48.525 593.191 49.275C592.341 49.975 591.516 50.475 590.716 50.775C589.916 51.025 589.266 51.275 588.766 51.525C588.566 51.575 588.341 51.625 588.091 51.675C587.891 51.775 587.666 51.825 587.416 51.825C586.416 51.825 585.641 51.55 585.091 51C584.891 50.8 584.566 50.6 584.116 50.4C583.716 50.2 583.341 49.85 582.991 49.35C582.641 48.85 582.466 48.025 582.466 46.875C582.466 45.675 582.616 44.525 582.916 43.425C582.016 42.375 581.566 41.225 581.566 39.975C581.566 39.225 581.741 38.5 582.091 37.8C583.041 36 584.241 34.6 585.691 33.6C587.141 32.6 588.516 31.9 589.816 31.5C591.166 31.1 592.091 30.9 592.591 30.9C594.441 30.9 595.816 31.5 596.716 32.7C597.616 33.9 598.066 35.3 598.066 36.9ZM594.991 37.275C594.991 36.125 594.591 35.175 593.791 34.425C593.041 33.675 592.091 33.3 590.941 33.3C589.991 33.3 589.016 33.6 588.016 34.2C587.066 34.75 586.241 35.45 585.541 36.3C584.841 37.15 584.391 37.975 584.191 38.775C584.141 39.075 584.091 39.35 584.041 39.6C584.041 39.85 584.041 40.1 584.041 40.35C584.591 39.15 585.166 38.15 585.766 37.35C586.416 36.55 586.891 36.05 587.191 35.85C587.441 35.65 587.766 35.55 588.166 35.55C588.716 35.55 588.991 35.7 588.991 36C588.991 36.2 588.716 36.575 588.166 37.125C587.666 37.625 587.091 38.3 586.441 39.15C585.791 39.95 585.241 40.95 584.791 42.15C585.191 42.65 585.716 43.025 586.366 43.275C587.066 43.475 587.741 43.575 588.391 43.575C589.091 43.575 589.741 43.45 590.341 43.2C590.991 42.9 591.416 42.5 591.616 42C591.666 41.85 591.691 41.725 591.691 41.625C591.741 41.475 591.766 41.35 591.766 41.25C591.766 40.75 591.541 40.45 591.091 40.35C590.691 40.2 590.291 40.15 589.891 40.2H589.741C589.191 40.2 588.916 40.075 588.916 39.825C588.916 39.675 588.966 39.525 589.066 39.375C589.216 39.225 589.341 39.1 589.441 39C589.741 38.7 590.066 38.55 590.416 38.55C590.916 38.55 591.466 38.875 592.066 39.525C592.616 40.275 592.891 41 592.891 41.7C592.891 42.6 592.441 43.3 591.541 43.8C590.691 44.3 589.741 44.65 588.691 44.85C587.641 45.05 586.841 45.15 586.291 45.15C585.491 45.15 584.841 44.975 584.341 44.625C584.291 44.725 584.266 44.95 584.266 45.3C584.266 46.7 584.641 47.65 585.391 48.15C586.141 48.6 586.766 48.95 587.266 49.2C587.566 49.3 587.816 49.35 588.016 49.35C588.716 49.35 589.441 49.05 590.191 48.45C590.991 47.85 591.691 47.025 592.291 45.975C592.741 45.175 593.166 44.225 593.566 43.125C593.966 42.025 594.291 40.95 594.541 39.9C594.841 38.8 594.991 37.925 594.991 37.275ZM614.205 37.35C614.205 38.5 614.105 39.35 613.905 39.9C613.755 40.45 613.53 40.9 613.23 41.25C612.98 41.6 612.705 42 612.405 42.45C612.105 42.9 611.855 43.575 611.655 44.475C611.505 45.325 611.43 46.575 611.43 48.225C611.43 48.875 611.68 49.4 612.18 49.8C612.68 50.2 613.255 50.4 613.905 50.4C614.205 50.4 614.355 50.5 614.355 50.7C614.355 50.95 614.155 51.25 613.755 51.6C613.405 52 613.08 52.2 612.78 52.2C611.68 52.2 610.88 51.775 610.38 50.925C609.88 50.025 609.63 49.075 609.63 48.075C609.63 46.425 609.68 45.125 609.78 44.175C609.88 43.175 609.98 42.25 610.08 41.4C610.18 40.5 610.205 39.4 610.155 38.1C610.105 37.2 609.98 36.5 609.78 36C609.58 35.45 609.055 35.175 608.205 35.175C607.755 35.175 607.43 35.25 607.23 35.4C607.08 35.55 606.88 35.8 606.63 36.15C606.08 36.95 605.605 38.075 605.205 39.525C604.855 40.925 604.555 42.425 604.305 44.025C604.105 45.575 603.905 46.975 603.705 48.225C603.555 49.425 603.405 50.225 603.255 50.625C603.105 50.975 602.905 51.225 602.655 51.375C602.455 51.525 602.23 51.6 601.98 51.6C601.78 51.6 601.58 51.55 601.38 51.45C601.23 51.4 601.105 51.35 601.005 51.3C600.755 51.15 600.63 50.9 600.63 50.55C600.63 50.2 600.705 49.8 600.855 49.35C601.055 48.85 601.205 48.4 601.305 48C601.405 47.6 601.555 46.9 601.755 45.9C602.005 44.85 602.255 43.775 602.505 42.675C602.755 41.525 602.955 40.55 603.105 39.75C603.305 38.9 603.405 38.475 603.405 38.475C603.155 38.475 602.905 38.5 602.655 38.55C602.405 38.55 602.155 38.55 601.905 38.55C601.155 38.55 600.78 38.25 600.78 37.65C600.78 37.25 600.93 36.65 601.23 35.85C601.53 35.05 602.08 34 602.88 32.7C603.13 32.3 603.63 31.8 604.38 31.2C605.13 30.6 605.755 30.35 606.255 30.45C606.455 30.35 606.63 30.3 606.78 30.3C606.93 30.3 607.055 30.3 607.155 30.3C607.705 30.3 608.005 30.5 608.055 30.9C608.155 31.25 608.18 31.625 608.13 32.025C608.08 32.375 608.105 32.525 608.205 32.475C608.905 32.175 609.605 32.025 610.305 32.025C611.355 32.025 612.255 32.45 613.005 33.3C613.805 34.1 614.205 35.45 614.205 37.35ZM636.905 41.85C636.255 42.95 635.43 44.15 634.43 45.45C633.43 46.7 632.38 47.775 631.28 48.675C630.23 49.575 629.23 50.025 628.28 50.025C626.73 50.025 625.505 49.95 624.605 49.8C623.755 49.6 623.055 49.325 622.505 48.975C621.555 48.325 620.78 47.475 620.18 46.425C619.58 45.375 619.23 44.3 619.13 43.2C619.08 42.9 619.055 42.6 619.055 42.3C619.055 42 619.055 41.725 619.055 41.475C619.055 38.525 619.63 35.925 620.78 33.675C621.93 31.425 623.555 30.075 625.655 29.625C626.305 29.525 626.805 29.8 627.155 30.45C627.505 31.05 627.68 31.875 627.68 32.925C627.68 34.525 627.255 36.25 626.405 38.1C626.055 38.85 625.68 39.575 625.28 40.275C624.93 40.925 624.63 41.45 624.38 41.85C623.73 42.8 623.23 43.45 622.88 43.8C622.58 44.1 622.43 44.4 622.43 44.7C622.43 45.5 622.93 46.275 623.93 47.025C624.93 47.775 626.48 48.15 628.58 48.15C629.38 48.15 630.205 47.8 631.055 47.1C631.905 46.4 632.73 45.525 633.53 44.475C634.38 43.425 635.13 42.375 635.78 41.325C636.08 40.825 636.355 40.575 636.605 40.575C636.905 40.575 637.055 40.8 637.055 41.25C637.055 41.45 637.005 41.65 636.905 41.85ZM625.655 32.4C625.455 32.1 625.03 32.175 624.38 32.625C623.78 33.025 623.23 33.975 622.73 35.475C622.38 36.575 622.205 37.85 622.205 39.3C622.205 39.7 622.205 40.1 622.205 40.5C622.255 40.9 622.305 41.3 622.355 41.7C623.205 40.25 623.805 39.175 624.155 38.475C624.555 37.725 624.855 36.95 625.055 36.15C625.155 35.75 625.305 35.25 625.505 34.65C625.755 34.05 625.88 33.525 625.88 33.075C625.88 32.775 625.805 32.55 625.655 32.4ZM662.617 40.5C661.767 41.25 661.042 41.825 660.442 42.225C659.892 42.575 659.067 42.85 657.967 43.05C657.517 44.2 656.917 45.525 656.167 47.025C655.467 48.475 654.692 49.725 653.842 50.775C653.042 51.825 652.192 52.35 651.292 52.35C649.592 52.35 648.317 51.975 647.467 51.225C646.667 50.525 646.142 49.525 645.892 48.225C645.692 46.875 645.592 45.35 645.592 43.65C645.592 41.9 645.742 39.75 646.042 37.2C646.342 34.65 646.792 31.9 647.392 28.95C648.042 26 648.842 23.025 649.792 20.025C650.692 17.175 651.667 14.4 652.717 11.7C653.767 9 655.292 6.65 657.292 4.65C657.692 4.1 658.167 3.825 658.717 3.825C659.217 3.825 659.642 4.025 659.992 4.425C660.342 4.775 660.492 5.2 660.442 5.7C660.442 5.7 660.417 6.325 660.367 7.575C660.367 8.825 660.292 10.35 660.142 12.15C659.992 13.9 659.767 15.575 659.467 17.175C658.967 19.925 658.117 22.8 656.917 25.8C655.717 28.8 654.517 31.5 653.317 33.9C652.717 35.1 652.017 36.325 651.217 37.575C650.467 38.775 649.817 39.8 649.267 40.65C648.717 41.5 648.442 42 648.442 42.15C648.392 42.4 648.342 42.675 648.292 42.975C648.292 43.275 648.292 43.575 648.292 43.875C648.292 45.275 648.542 46.65 649.042 48C649.592 49.35 650.292 50.025 651.142 50.025C651.692 50.025 652.267 49.65 652.867 48.9C653.517 48.1 654.142 47.175 654.742 46.125C655.342 45.025 655.842 44.025 656.242 43.125C654.892 42.425 654.217 41.3 654.217 39.75C654.217 39.3 654.292 38.85 654.442 38.4C654.792 37.2 655.267 36.325 655.867 35.775C656.467 35.225 657.067 34.95 657.667 34.95C658.217 34.95 658.692 35.175 659.092 35.625C659.492 36.025 659.692 36.575 659.692 37.275C659.692 37.825 659.592 38.325 659.392 38.775C659.342 39.025 659.292 39.25 659.242 39.45C659.242 39.6 659.117 39.95 658.867 40.5C659.717 40.25 660.467 39.875 661.117 39.375C661.767 38.825 662.217 38.525 662.467 38.475C662.617 38.425 662.817 38.4 663.067 38.4C663.517 38.4 663.742 38.55 663.742 38.85C663.742 39.25 663.367 39.8 662.617 40.5ZM657.967 8.85C657.517 8.75 656.767 9.875 655.717 12.225C654.667 14.525 653.567 17.625 652.417 21.525C652.067 22.725 651.667 24.25 651.217 26.1C650.767 27.95 650.342 29.875 649.942 31.875C649.542 33.825 649.217 35.6 648.967 37.2C650.567 33.95 652.017 31.025 653.317 28.425C654.667 25.825 655.692 23.4 656.392 21.15C656.942 19.35 657.392 17.425 657.742 15.375C658.142 13.325 658.342 11.7 658.342 10.5C658.342 9.5 658.217 8.95 657.967 8.85ZM680.097 36.9C680.097 37.95 679.872 39.325 679.422 41.025C678.972 42.725 678.372 44.325 677.622 45.825C676.922 47.375 676.122 48.525 675.222 49.275C674.372 49.975 673.547 50.475 672.747 50.775C671.947 51.025 671.297 51.275 670.797 51.525C670.597 51.575 670.372 51.625 670.122 51.675C669.922 51.775 669.697 51.825 669.447 51.825C668.447 51.825 667.672 51.55 667.122 51C666.922 50.8 666.597 50.6 666.147 50.4C665.747 50.2 665.372 49.85 665.022 49.35C664.672 48.85 664.497 48.025 664.497 46.875C664.497 45.675 664.647 44.525 664.947 43.425C664.047 42.375 663.597 41.225 663.597 39.975C663.597 39.225 663.772 38.5 664.122 37.8C665.072 36 666.272 34.6 667.722 33.6C669.172 32.6 670.547 31.9 671.847 31.5C673.197 31.1 674.122 30.9 674.622 30.9C676.472 30.9 677.847 31.5 678.747 32.7C679.647 33.9 680.097 35.3 680.097 36.9ZM677.022 37.275C677.022 36.125 676.622 35.175 675.822 34.425C675.072 33.675 674.122 33.3 672.972 33.3C672.022 33.3 671.047 33.6 670.047 34.2C669.097 34.75 668.272 35.45 667.572 36.3C666.872 37.15 666.422 37.975 666.222 38.775C666.172 39.075 666.122 39.35 666.072 39.6C666.072 39.85 666.072 40.1 666.072 40.35C666.622 39.15 667.197 38.15 667.797 37.35C668.447 36.55 668.922 36.05 669.222 35.85C669.472 35.65 669.797 35.55 670.197 35.55C670.747 35.55 671.022 35.7 671.022 36C671.022 36.2 670.747 36.575 670.197 37.125C669.697 37.625 669.122 38.3 668.472 39.15C667.822 39.95 667.272 40.95 666.822 42.15C667.222 42.65 667.747 43.025 668.397 43.275C669.097 43.475 669.772 43.575 670.422 43.575C671.122 43.575 671.772 43.45 672.372 43.2C673.022 42.9 673.447 42.5 673.647 42C673.697 41.85 673.722 41.725 673.722 41.625C673.772 41.475 673.797 41.35 673.797 41.25C673.797 40.75 673.572 40.45 673.122 40.35C672.722 40.2 672.322 40.15 671.922 40.2H671.772C671.222 40.2 670.947 40.075 670.947 39.825C670.947 39.675 670.997 39.525 671.097 39.375C671.247 39.225 671.372 39.1 671.472 39C671.772 38.7 672.097 38.55 672.447 38.55C672.947 38.55 673.497 38.875 674.097 39.525C674.647 40.275 674.922 41 674.922 41.7C674.922 42.6 674.472 43.3 673.572 43.8C672.722 44.3 671.772 44.65 670.722 44.85C669.672 45.05 668.872 45.15 668.322 45.15C667.522 45.15 666.872 44.975 666.372 44.625C666.322 44.725 666.297 44.95 666.297 45.3C666.297 46.7 666.672 47.65 667.422 48.15C668.172 48.6 668.797 48.95 669.297 49.2C669.597 49.3 669.847 49.35 670.047 49.35C670.747 49.35 671.472 49.05 672.222 48.45C673.022 47.85 673.722 47.025 674.322 45.975C674.772 45.175 675.197 44.225 675.597 43.125C675.997 42.025 676.322 40.95 676.572 39.9C676.872 38.8 677.022 37.925 677.022 37.275ZM698.636 46.95C698.836 46.75 699.111 46.65 699.461 46.65C699.811 46.65 699.986 46.8 699.986 47.1C699.986 47.45 699.586 48 698.786 48.75C697.986 49.5 697.111 50.1 696.161 50.55C695.211 51 694.311 51.325 693.461 51.525C693.061 51.575 692.511 51.425 691.811 51.075C691.161 50.775 690.761 50.45 690.611 50.1C690.411 49.65 690.261 49.15 690.161 48.6C690.061 48 690.011 47.375 690.011 46.725C690.011 45.175 690.186 43.575 690.536 41.925C690.886 40.275 691.211 38.85 691.511 37.65C690.911 37.85 690.236 37.95 689.486 37.95C688.786 37.95 688.161 38 687.611 38.1C687.261 38.6 686.961 39.175 686.711 39.825C686.461 40.425 686.111 41.1 685.661 41.85C684.861 43.15 683.961 44.45 682.961 45.75C682.011 47 681.036 48.025 680.036 48.825C679.036 49.625 678.061 50.025 677.111 50.025C676.461 50.025 676.136 49.85 676.136 49.5C676.136 49.15 676.561 48.825 677.411 48.525C678.611 48.075 679.836 47.125 681.086 45.675C682.336 44.225 683.461 42.725 684.461 41.175C684.961 40.425 685.286 39.75 685.436 39.15C685.586 38.5 685.661 38 685.661 37.65C685.661 37.65 685.436 37.4 684.986 36.9C684.586 36.35 684.386 35.825 684.386 35.325C684.386 34.225 684.736 33.225 685.436 32.325C686.186 31.425 686.961 31.1 687.761 31.35C688.311 31.5 688.661 31.75 688.811 32.1C689.011 32.45 689.111 32.825 689.111 33.225C689.111 33.675 689.036 34.15 688.886 34.65C688.736 35.1 688.586 35.5 688.436 35.85C688.586 36.05 688.911 36.15 689.411 36.15C690.161 36.15 690.986 36 691.886 35.7C692.536 34.75 693.161 34 693.761 33.45C694.361 32.9 694.911 32.675 695.411 32.775C695.761 32.825 696.086 32.95 696.386 33.15C696.686 33.35 696.836 33.725 696.836 34.275C696.836 34.725 696.611 35.4 696.161 36.3C695.411 37.65 694.711 39.125 694.061 40.725C693.411 42.275 692.911 43.7 692.561 45C692.211 46.25 692.061 47.125 692.111 47.625C692.211 48.275 692.386 48.7 692.636 48.9C692.936 49.1 693.261 49.2 693.611 49.2C693.861 49.2 694.111 49.175 694.361 49.125C694.661 49.025 694.936 48.95 695.186 48.9C695.936 48.65 696.561 48.375 697.061 48.075C697.561 47.775 698.086 47.4 698.636 46.95ZM687.461 34.275C687.461 33.825 687.311 33.5 687.011 33.3C686.961 33.25 686.886 33.225 686.786 33.225C686.536 33.225 686.311 33.4 686.111 33.75C685.911 34.05 685.811 34.35 685.811 34.65C685.811 34.9 685.836 35.2 685.886 35.55C685.986 35.85 686.161 35.925 686.411 35.775C686.661 35.625 686.886 35.425 687.086 35.175C687.336 34.925 687.461 34.625 687.461 34.275ZM716.334 20.7C715.984 20.7 715.634 20.65 715.284 20.55C714.984 20.4 714.684 20.225 714.384 20.025C713.734 19.725 713.409 19.075 713.409 18.075C713.409 17.625 713.509 17.125 713.709 16.575C713.959 16.025 714.334 15.5 714.834 15C715.184 14.65 715.609 14.475 716.109 14.475C716.559 14.475 716.984 14.65 717.384 15C717.584 15.2 717.709 15.525 717.759 15.975C717.859 16.375 717.909 16.825 717.909 17.325C717.909 17.925 717.859 18.525 717.759 19.125C717.659 19.675 717.484 20.075 717.234 20.325C716.884 20.575 716.584 20.7 716.334 20.7ZM708.684 50.175C706.834 50.175 705.559 49.75 704.859 48.9C704.159 48.05 703.809 47.025 703.809 45.825C703.809 45.275 703.859 44.725 703.959 44.175C704.059 43.625 704.184 43.075 704.334 42.525C703.834 43.425 703.059 44.475 702.009 45.675C700.959 46.825 699.984 47.75 699.084 48.45C698.884 48.6 698.684 48.675 698.484 48.675C698.184 48.675 698.034 48.5 698.034 48.15C698.034 47.75 698.184 47.4 698.484 47.1C700.584 44.9 702.184 43.125 703.284 41.775C704.384 40.375 705.234 39.2 705.834 38.25C706.434 37.3 707.009 36.425 707.559 35.625C708.009 34.175 708.409 32.775 708.759 31.425C709.159 30.025 709.759 28.6 710.559 27.15C710.809 26.7 711.309 26.475 712.059 26.475C712.559 26.475 713.009 26.6 713.409 26.85C713.809 27.1 714.009 27.525 714.009 28.125C714.009 28.425 713.934 28.775 713.784 29.175C713.234 30.725 712.634 32.05 711.984 33.15C711.384 34.2 710.584 35.55 709.584 37.2C708.534 38.9 707.684 40.55 707.034 42.15C706.434 43.75 706.134 45.1 706.134 46.2C706.134 46.9 706.284 47.475 706.584 47.925C706.934 48.375 707.434 48.6 708.084 48.6C709.484 48.65 710.559 48.425 711.309 47.925C712.059 47.375 712.684 46.85 713.184 46.35C713.834 45.65 714.384 45 714.834 44.4C715.334 43.8 715.784 43.275 716.184 42.825C716.484 42.525 716.634 42.575 716.634 42.975C716.634 43.225 716.559 43.55 716.409 43.95C716.309 44.35 716.184 44.65 716.034 44.85C715.534 45.55 714.934 46.325 714.234 47.175C713.584 48.025 712.809 48.75 711.909 49.35C711.009 49.9 709.934 50.175 708.684 50.175ZM728.902 37.35C728.902 38.5 728.802 39.35 728.602 39.9C728.452 40.45 728.227 40.9 727.927 41.25C727.677 41.6 727.402 42 727.102 42.45C726.802 42.9 726.552 43.575 726.352 44.475C726.202 45.325 726.127 46.575 726.127 48.225C726.127 48.875 726.377 49.4 726.877 49.8C727.377 50.2 727.952 50.4 728.602 50.4C728.902 50.4 729.052 50.5 729.052 50.7C729.052 50.95 728.852 51.25 728.452 51.6C728.102 52 727.777 52.2 727.477 52.2C726.377 52.2 725.577 51.775 725.077 50.925C724.577 50.025 724.327 49.075 724.327 48.075C724.327 46.425 724.377 45.125 724.477 44.175C724.577 43.175 724.677 42.25 724.777 41.4C724.877 40.5 724.902 39.4 724.852 38.1C724.802 37.2 724.677 36.5 724.477 36C724.277 35.45 723.752 35.175 722.902 35.175C722.452 35.175 722.127 35.25 721.927 35.4C721.777 35.55 721.577 35.8 721.327 36.15C720.777 36.95 720.302 38.075 719.902 39.525C719.552 40.925 719.252 42.425 719.002 44.025C718.802 45.575 718.602 46.975 718.402 48.225C718.252 49.425 718.102 50.225 717.952 50.625C717.802 50.975 717.602 51.225 717.352 51.375C717.152 51.525 716.927 51.6 716.677 51.6C716.477 51.6 716.277 51.55 716.077 51.45C715.927 51.4 715.802 51.35 715.702 51.3C715.452 51.15 715.327 50.9 715.327 50.55C715.327 50.2 715.402 49.8 715.552 49.35C715.752 48.85 715.902 48.4 716.002 48C716.102 47.6 716.252 46.9 716.452 45.9C716.702 44.85 716.952 43.775 717.202 42.675C717.452 41.525 717.652 40.55 717.802 39.75C718.002 38.9 718.102 38.475 718.102 38.475C717.852 38.475 717.602 38.5 717.352 38.55C717.102 38.55 716.852 38.55 716.602 38.55C715.852 38.55 715.477 38.25 715.477 37.65C715.477 37.25 715.627 36.65 715.927 35.85C716.227 35.05 716.777 34 717.577 32.7C717.827 32.3 718.327 31.8 719.077 31.2C719.827 30.6 720.452 30.35 720.952 30.45C721.152 30.35 721.327 30.3 721.477 30.3C721.627 30.3 721.752 30.3 721.852 30.3C722.402 30.3 722.702 30.5 722.752 30.9C722.852 31.25 722.877 31.625 722.827 32.025C722.777 32.375 722.802 32.525 722.902 32.475C723.602 32.175 724.302 32.025 725.002 32.025C726.052 32.025 726.952 32.45 727.702 33.3C728.502 34.1 728.902 35.45 728.902 37.35ZM755.578 28.8C755.878 29.15 756.028 29.725 756.028 30.525C756.028 31.625 755.778 33.025 755.278 34.725C754.828 36.425 754.278 38.25 753.628 40.2C753.028 42.15 752.478 44.1 751.978 46.05C751.528 47.95 751.278 49.7 751.228 51.3C751.178 53.3 751.053 55.025 750.853 56.475C750.703 57.925 750.453 59.325 750.103 60.675C749.753 62.025 749.253 63.55 748.603 65.25C748.003 66.95 747.203 69.075 746.203 71.625C744.253 74.025 742.153 75.675 739.903 76.575C737.653 77.525 735.328 77.9 732.928 77.7C731.978 77.6 730.978 76.975 729.928 75.825C728.828 74.675 727.903 73.15 727.153 71.25C726.403 69.35 726.028 67.275 726.028 65.025C726.028 64.125 726.103 63.225 726.253 62.325C726.503 60.825 726.878 59.325 727.378 57.825C727.878 56.325 728.603 55.075 729.553 54.075C730.503 53.075 731.778 52.575 733.378 52.575C734.678 52.575 735.878 53.05 736.978 54C738.128 55 739.078 56.125 739.828 57.375C740.628 58.625 741.153 59.725 741.403 60.675C741.553 61.275 741.678 61.9 741.778 62.55C741.928 63.25 742.003 63.925 742.003 64.575C742.003 65.725 741.778 66.525 741.328 66.975C740.828 67.525 740.228 67.8 739.528 67.8C738.928 67.8 738.253 67.65 737.503 67.35C737.003 67.25 736.428 66.9 735.778 66.3C735.128 65.75 734.803 65.025 734.803 64.125C734.803 63.525 734.928 62.95 735.178 62.4C735.428 61.85 735.653 61.475 735.853 61.275C736.203 60.925 736.478 60.75 736.678 60.75C736.878 60.75 737.003 60.85 737.053 61.05C737.103 61.3 737.153 61.55 737.203 61.8V61.875C737.203 62.025 737.128 62.175 736.978 62.325C736.828 62.525 736.753 62.8 736.753 63.15C736.753 64 736.978 64.6 737.428 64.95C737.928 65.35 738.278 65.55 738.478 65.55C739.128 65.55 739.453 64.9 739.453 63.6C739.453 62.55 739.153 61.275 738.553 59.775C738.053 58.525 737.353 57.425 736.453 56.475C735.553 55.575 734.528 55.025 733.378 54.825C732.728 54.725 732.053 54.875 731.353 55.275C730.603 55.725 729.953 56.525 729.403 57.675C729.053 58.325 728.828 59.05 728.728 59.85C728.578 60.65 728.503 61.45 728.503 62.25C728.503 63.3 728.578 64.2 728.728 64.95C728.828 67.85 729.603 70.075 731.053 71.625C732.503 73.225 734.378 74.025 736.678 74.025C736.928 74.025 737.178 74.025 737.428 74.025C737.678 74.025 737.928 74 738.178 73.95C739.678 73.75 741.128 73 742.528 71.7C743.928 70.45 745.103 68.95 746.053 67.2C746.653 66.15 747.078 64.85 747.328 63.3C747.578 61.8 747.753 60.225 747.853 58.575C748.003 56.925 748.178 55.45 748.378 54.15C748.478 53.7 748.528 53.3 748.528 52.95C748.528 52.65 748.528 52.4 748.528 52.2C748.528 51.65 748.478 51.1 748.378 50.55C748.328 49.95 748.303 48.95 748.303 47.55C748.303 47.15 748.303 46.7 748.303 46.2C748.303 45.7 748.328 45.125 748.378 44.475C746.028 45.775 743.928 46.425 742.078 46.425C739.828 46.425 737.953 45.45 736.453 43.5C735.903 42.8 735.628 42 735.628 41.1C735.628 39.9 736.028 38.65 736.828 37.35C737.678 36 738.778 34.725 740.128 33.525C741.528 32.275 743.028 31.225 744.628 30.375C746.278 29.475 747.878 28.9 749.428 28.65C750.128 28.55 750.828 28.4 751.528 28.2C752.278 27.95 752.953 27.825 753.553 27.825C754.403 27.825 755.078 28.15 755.578 28.8ZM751.828 34.35C751.928 33.9 752.028 33.475 752.128 33.075C752.278 32.625 752.353 32.225 752.353 31.875C752.353 31.625 752.328 31.375 752.278 31.125C752.228 30.825 752.078 30.575 751.828 30.375C751.528 30.025 751.053 29.85 750.403 29.85C749.553 29.85 748.528 30.175 747.328 30.825C746.128 31.475 744.953 32.375 743.803 33.525C742.703 34.625 741.853 35.95 741.253 37.5C741.003 38.15 740.753 38.975 740.503 39.975C740.253 40.925 740.128 41.825 740.128 42.675C740.128 43.475 740.253 44.075 740.503 44.475C740.803 44.825 741.353 45 742.153 45C742.903 45 743.728 44.85 744.628 44.55C745.578 44.2 746.378 43.75 747.028 43.2C748.528 41.8 749.603 40.35 750.253 38.85C750.953 37.3 751.478 35.8 751.828 34.35Z" fill="#908330"/>
</g>
<defs>
<filter id="filter0_i_8_56" x="0.300049" y="0.524994" width="755.728" height="77.475" filterUnits="userSpaceOnUse" color-interpolation-filters="sRGB">
<feFlood flood-opacity="0" result="BackgroundImageFix"/>
<feBlend mode="normal" in="SourceGraphic" in2="BackgroundImageFix" result="shape"/>
<feColorMatrix in="SourceAlpha" type="matrix" values="0 0 0 0 0 0 0 0 0 0 0 0 0 0 0 0 0 0 127 0" result="hardAlpha"/>
<feOffset dy="1"/>
<feComposite in2="hardAlpha" operator="arithmetic" k2="-1" k3="1"/>
<feColorMatrix type="matrix" values="0 0 0 0 0 0 0 0 0 0 0 0 0 0 0 0 0 0 0.58 0"/>
<feBlend mode="normal" in2="shape" result="effect1_innerShadow_8_56"/>
</filter>
</defs>
</svg>
